<svg xmlns="http://www.w3.org/2000/svg" width="600" height="600" viewBox="0 0 600 600">
<rect x="0" y="0" width="600" height="600" fill="#FFFFFF"/>
<style><![CDATA[
.room{fill:#F5F5F5;stroke:#1A1A1A;stroke-width:8;}
.wall{stroke:#1A1A1A;stroke-width:8;stroke-linecap:square;fill:none;}
.thin{stroke:#1A1A1A;stroke-width:2;fill:none;}
.dash{stroke:#1A1A1A;stroke-width:2;fill:none;stroke-dasharray:7 6;}
.door{stroke:#1A1A1A;stroke-width:2;fill:none;}
.label{font-family:monospace;font-size:11px;fill:#1A1A1A;text-anchor:middle;dominant-baseline:middle;letter-spacing:.8px;}
.small{font-family:monospace;font-size:10px;fill:#1A1A1A;}
.tiny{font-family:monospace;font-size:8px;fill:#1A1A1A;text-anchor:middle;dominant-baseline:middle;}
.flaw{fill:none;stroke:#D00000;stroke-width:1.5;stroke-dasharray:6 5;}
]]></style>
<rect x="75" y="80" width="220" height="150" class="room"/>
<text x="185.0" y="155.0" class="label">LIVING ROOM</text>
<rect x="295" y="80" width="160" height="150" class="room"/>
<text x="375.0" y="155.0" class="label">KITCHEN</text>
<rect x="75" y="230" width="130" height="105" class="room"/>
<text x="140.0" y="282.5" class="label">BEDROOM</text>
<rect x="205" y="230" width="185" height="170" class="room"/>
<text x="297.5" y="315.0" class="label">CLOSET</text>
<rect x="390" y="230" width="105" height="120" class="room"/>
<text x="442.5" y="290.0" class="label">BATHROOM</text>
<text x="100" y="72" class="small">FRONT DOOR</text>
<line x1="120" y1="80" x2="120" y2="114" class="thin"/>
<path d="M120 114 A34 34 0 0 1 154 80" class="door"/>
<line x1="295" y1="155" x2="295" y2="183" class="thin"/>
<path d="M295 183 A28 28 0 0 1 323 155" class="door"/>
<line x1="205" y1="285" x2="205" y2="313" class="thin"/>
<path d="M205 313 A28 28 0 0 1 233 285" class="door"/>
<line x1="390" y1="285" x2="362" y2="285" class="thin"/>
<path d="M362 285 A28 28 0 0 1 390 313" class="door"/>
<rect x="318" y="105" width="34" height="26" fill="#FFFFFF" stroke="#1A1A1A" stroke-width="2"/>
<text x="335" y="120" class="tiny" text-anchor="middle">SINK</text>
<rect x="358" y="105" width="34" height="26" fill="#FFFFFF" stroke="#1A1A1A" stroke-width="2"/>
<text x="375" y="120" class="tiny" text-anchor="middle">STV</text>
<rect x="398" y="105" width="34" height="26" fill="#FFFFFF" stroke="#1A1A1A" stroke-width="2"/>
<text x="415" y="120" class="tiny" text-anchor="middle">FRG</text>
<rect x="102" y="277" width="62" height="38" fill="#FFFFFF" stroke="#1A1A1A" stroke-width="2"/>
<line x1="102" y1="290" x2="164" y2="290" class="thin"/>
<text x="133.0" y="300.0" class="tiny" text-anchor="middle">BED</text>
<rect x="140" y="172" width="70" height="26" fill="#FFFFFF" stroke="#1A1A1A" stroke-width="2"/>
<text x="175" y="189" class="tiny" text-anchor="middle">SOFA</text>
<line x1="120" y1="80" x2="210" y2="80" stroke="#FFFFFF" stroke-width="12" stroke-linecap="square"/>
<line x1="120" y1="80" x2="210" y2="80" stroke="#1A1A1A" stroke-width="2" stroke-linecap="square"/>
<line x1="235" y1="400" x2="330" y2="400" stroke="#FFFFFF" stroke-width="12" stroke-linecap="square"/>
<line x1="235" y1="400" x2="330" y2="400" stroke="#1A1A1A" stroke-width="2" stroke-linecap="square"/>
<text x="298" y="420" class="small" text-anchor="middle">CLOSET LARGER THAN BEDROOM</text>
<rect x="198" y="222" width="200" height="186" class="flaw"/>
<g transform="translate(520,58)">
<circle cx="0" cy="0" r="22" class="thin"/>
<line x1="0" y1="-28" x2="0" y2="28" class="thin"/>
<line x1="-28" y1="0" x2="28" y2="0" class="thin"/>
<path d="M0 -32 L5 -20 L0 -24 L-5 -20 Z" fill="#1A1A1A"/>
<text x="0" y="-37" class="tiny">N</text>
<text x="34" y="3" class="tiny">E</text>
<text x="0" y="38" class="tiny">S</text>
<text x="-34" y="3" class="tiny">W</text>
</g>
<g transform="translate(405,548)">
<line x1="0" y1="0" x2="120" y2="0" class="thin"/>
<line x1="0" y1="-5" x2="0" y2="5" class="thin"/>
<line x1="120" y1="-5" x2="120" y2="5" class="thin"/>
<text x="60" y="18" class="tiny">NOT TO SCALE</text>
</g>
<text x="40" y="560" class="small">NASHVILLE / 1 BEDROOM</text>
</svg>