<svg xmlns="http://www.w3.org/2000/svg" width="600" height="600" viewBox="0 0 600 600">
<rect x="0" y="0" width="600" height="600" fill="#FFFFFF"/>
<style><![CDATA[
.room{fill:#F5F5F5;stroke:#1A1A1A;stroke-width:8;}
.wall{stroke:#1A1A1A;stroke-width:8;stroke-linecap:square;fill:none;}
.thin{stroke:#1A1A1A;stroke-width:2;fill:none;}
.dash{stroke:#1A1A1A;stroke-width:2;fill:none;stroke-dasharray:7 6;}
.door{stroke:#1A1A1A;stroke-width:2;fill:none;}
.label{font-family:monospace;font-size:11px;fill:#1A1A1A;text-anchor:middle;dominant-baseline:middle;letter-spacing:.8px;}
.small{font-family:monospace;font-size:10px;fill:#1A1A1A;}
.tiny{font-family:monospace;font-size:8px;fill:#1A1A1A;text-anchor:middle;dominant-baseline:middle;}
.flaw{fill:none;stroke:#D00000;stroke-width:1.5;stroke-dasharray:6 5;}
]]></style>
<rect x="180" y="60" width="220" height="105" class="room"/>
<text x="290.0" y="112.5" class="label">LIVING ROOM</text>
<rect x="180" y="165" width="220" height="105" class="room"/>
<text x="290.0" y="217.5" class="label">KITCHEN</text>
<rect x="180" y="270" width="220" height="120" class="room"/>
<text x="290.0" y="330.0" class="label">BEDROOM</text>
<rect x="180" y="390" width="220" height="90" class="room"/>
<text x="290.0" y="435.0" class="label">BATHROOM</text>
<text x="250" y="52" class="small">FRONT DOOR</text>
<line x1="270" y1="60" x2="270" y2="94" class="thin"/>
<path d="M270 94 A34 34 0 0 1 304 60" class="door"/>
<line x1="280" y1="165" x2="280" y2="195" class="thin"/>
<path d="M280 195 A30 30 0 0 1 310 165" class="door"/>
<line x1="280" y1="270" x2="280" y2="300" class="thin"/>
<path d="M280 300 A30 30 0 0 1 310 270" class="door"/>
<line x1="280" y1="390" x2="280" y2="420" class="thin"/>
<path d="M280 420 A30 30 0 0 1 310 390" class="door"/>
<rect x="220" y="202" width="34" height="26" fill="#FFFFFF" stroke="#1A1A1A" stroke-width="2"/>
<text x="237" y="217" class="tiny" text-anchor="middle">SINK</text>
<rect x="260" y="202" width="34" height="26" fill="#FFFFFF" stroke="#1A1A1A" stroke-width="2"/>
<text x="277" y="217" class="tiny" text-anchor="middle">STV</text>
<rect x="300" y="202" width="34" height="26" fill="#FFFFFF" stroke="#1A1A1A" stroke-width="2"/>
<text x="317" y="217" class="tiny" text-anchor="middle">FRG</text>
<rect x="258" y="318" width="68" height="42" fill="#FFFFFF" stroke="#1A1A1A" stroke-width="2"/>
<line x1="258" y1="331" x2="326" y2="331" class="thin"/>
<text x="292.0" y="343.0" class="tiny" text-anchor="middle">BED</text>
<rect x="235" y="135" width="70" height="26" fill="#FFFFFF" stroke="#1A1A1A" stroke-width="2"/>
<text x="270" y="152" class="tiny" text-anchor="middle">SOFA</text>
<line x1="235" y1="60" x2="340" y2="60" stroke="#FFFFFF" stroke-width="12" stroke-linecap="square"/>
<line x1="235" y1="60" x2="340" y2="60" stroke="#1A1A1A" stroke-width="2" stroke-linecap="square"/>
<line x1="245" y1="480" x2="340" y2="480" stroke="#FFFFFF" stroke-width="12" stroke-linecap="square"/>
<line x1="245" y1="480" x2="340" y2="480" stroke="#1A1A1A" stroke-width="2" stroke-linecap="square"/>
<text x="130" y="220" class="small" text-anchor="middle">NO SIDE WINDOWS</text>
<line x1="168" y1="70" x2="168" y2="470" class="dash"/>
<line x1="412" y1="70" x2="412" y2="470" class="dash"/>
<text x="470" y="220" class="small" text-anchor="middle">DEAD AIR MIDDLE ROOMS</text>
<rect x="160" y="165" width="260" height="225" class="flaw"/>
<g transform="translate(520,58)">
<circle cx="0" cy="0" r="22" class="thin"/>
<line x1="0" y1="-28" x2="0" y2="28" class="thin"/>
<line x1="-28" y1="0" x2="28" y2="0" class="thin"/>
<path d="M0 -32 L5 -20 L0 -24 L-5 -20 Z" fill="#1A1A1A"/>
<text x="0" y="-37" class="tiny">N</text>
<text x="34" y="3" class="tiny">E</text>
<text x="0" y="38" class="tiny">S</text>
<text x="-34" y="3" class="tiny">W</text>
</g>
<g transform="translate(405,548)">
<line x1="0" y1="0" x2="120" y2="0" class="thin"/>
<line x1="0" y1="-5" x2="0" y2="5" class="thin"/>
<line x1="120" y1="-5" x2="120" y2="5" class="thin"/>
<text x="60" y="18" class="tiny">NOT TO SCALE</text>
</g>
<text x="40" y="560" class="small">NEW ORLEANS / 1 BEDROOM</text>
</svg>