<svg xmlns="http://www.w3.org/2000/svg" width="600" height="600" viewBox="0 0 600 600">
<rect x="0" y="0" width="600" height="600" fill="#FFFFFF"/>
<style><![CDATA[
.room{fill:#F5F5F5;stroke:#1A1A1A;stroke-width:8;}
.wall{stroke:#1A1A1A;stroke-width:8;stroke-linecap:square;fill:none;}
.thin{stroke:#1A1A1A;stroke-width:2;fill:none;}
.dash{stroke:#1A1A1A;stroke-width:2;fill:none;stroke-dasharray:7 6;}
.door{stroke:#1A1A1A;stroke-width:2;fill:none;}
.label{font-family:monospace;font-size:11px;fill:#1A1A1A;text-anchor:middle;dominant-baseline:middle;letter-spacing:.8px;}
.small{font-family:monospace;font-size:10px;fill:#1A1A1A;}
.tiny{font-family:monospace;font-size:8px;fill:#1A1A1A;text-anchor:middle;dominant-baseline:middle;}
.flaw{fill:none;stroke:#D00000;stroke-width:1.5;stroke-dasharray:6 5;}
]]></style>
<rect x="80" y="80" width="210" height="145" class="room"/>
<text x="185.0" y="152.5" class="label">LIVING ROOM</text>
<rect x="290" y="80" width="95" height="280" class="room"/>
<text x="337.5" y="220.0" class="label">HALL</text>
<rect x="290" y="360" width="95" height="80" class="room"/>
<text x="337.5" y="400.0" class="label">ENTRY</text>
<rect x="385" y="80" width="135" height="145" class="room"/>
<text x="452.5" y="152.5" class="label">KITCHEN</text>
<rect x="80" y="225" width="210" height="165" class="room"/>
<text x="185.0" y="307.5" class="label">BEDROOM</text>
<rect x="385" y="225" width="135" height="110" class="room"/>
<text x="452.5" y="280.0" class="label">BATHROOM</text>
<text x="310" y="432" class="small">FRONT DOOR</text>
<line x1="330" y1="440" x2="330" y2="406" class="thin"/>
<path d="M330 406 A34 34 0 0 1 296 440" class="door"/>
<line x1="290" y1="155" x2="290" y2="183" class="thin"/>
<path d="M290 183 A28 28 0 0 1 318 155" class="door"/>
<line x1="290" y1="292" x2="290" y2="320" class="thin"/>
<path d="M290 320 A28 28 0 0 1 318 292" class="door"/>
<line x1="385" y1="283" x2="357" y2="283" class="thin"/>
<path d="M357 283 A28 28 0 0 1 385 311" class="door"/>
<rect x="392" y="102" width="28" height="240" fill="#FFFFFF" stroke="#1A1A1A" stroke-width="2"/>
<text x="406" y="138" class="tiny" text-anchor="middle">STV</text>
<text x="406" y="198" class="tiny" text-anchor="middle">SINK</text>
<text x="406" y="258" class="tiny" text-anchor="middle">FRG</text>
<rect x="148" y="295" width="68" height="42" fill="#FFFFFF" stroke="#1A1A1A" stroke-width="2"/>
<line x1="148" y1="308" x2="216" y2="308" class="thin"/>
<text x="182.0" y="320.0" class="tiny" text-anchor="middle">BED</text>
<rect x="145" y="170" width="70" height="26" fill="#FFFFFF" stroke="#1A1A1A" stroke-width="2"/>
<text x="180" y="187" class="tiny" text-anchor="middle">SOFA</text>
<line x1="120" y1="80" x2="210" y2="80" stroke="#FFFFFF" stroke-width="12" stroke-linecap="square"/>
<line x1="120" y1="80" x2="210" y2="80" stroke="#1A1A1A" stroke-width="2" stroke-linecap="square"/>
<line x1="135" y1="390" x2="225" y2="390" stroke="#FFFFFF" stroke-width="12" stroke-linecap="square"/>
<line x1="135" y1="390" x2="225" y2="390" stroke="#1A1A1A" stroke-width="2" stroke-linecap="square"/>
<line x1="337" y1="420" x2="337" y2="95" class="dash"/>
<text x="340" y="68" class="small" text-anchor="middle">MAIN TRAFFIC PASSES STOVE</text>
<rect x="286" y="92" width="142" height="270" class="flaw"/>
<g transform="translate(520,58)">
<circle cx="0" cy="0" r="22" class="thin"/>
<line x1="0" y1="-28" x2="0" y2="28" class="thin"/>
<line x1="-28" y1="0" x2="28" y2="0" class="thin"/>
<path d="M0 -32 L5 -20 L0 -24 L-5 -20 Z" fill="#1A1A1A"/>
<text x="0" y="-37" class="tiny">N</text>
<text x="34" y="3" class="tiny">E</text>
<text x="0" y="38" class="tiny">S</text>
<text x="-34" y="3" class="tiny">W</text>
</g>
<g transform="translate(405,548)">
<line x1="0" y1="0" x2="120" y2="0" class="thin"/>
<line x1="0" y1="-5" x2="0" y2="5" class="thin"/>
<line x1="120" y1="-5" x2="120" y2="5" class="thin"/>
<text x="60" y="18" class="tiny">NOT TO SCALE</text>
</g>
<text x="40" y="560" class="small">CHICAGO / 1 BEDROOM</text>
</svg>