<svg xmlns="http://www.w3.org/2000/svg" width="600" height="600" viewBox="0 0 600 600">
<rect x="0" y="0" width="600" height="600" fill="#FFFFFF"/>
<style><![CDATA[
.room{fill:#F5F5F5;stroke:#1A1A1A;stroke-width:8;}
.wall{stroke:#1A1A1A;stroke-width:8;stroke-linecap:square;fill:none;}
.thin{stroke:#1A1A1A;stroke-width:2;fill:none;}
.dash{stroke:#1A1A1A;stroke-width:2;fill:none;stroke-dasharray:7 6;}
.door{stroke:#1A1A1A;stroke-width:2;fill:none;}
.label{font-family:monospace;font-size:11px;fill:#1A1A1A;text-anchor:middle;dominant-baseline:middle;letter-spacing:.8px;}
.small{font-family:monospace;font-size:10px;fill:#1A1A1A;}
.tiny{font-family:monospace;font-size:8px;fill:#1A1A1A;text-anchor:middle;dominant-baseline:middle;}
.flaw{fill:none;stroke:#D00000;stroke-width:1.5;stroke-dasharray:6 5;}
]]></style>
<rect x="170" y="64" width="230" height="110" class="room"/>
<text x="285.0" y="119.0" class="label">LIVING ROOM</text>
<rect x="170" y="174" width="230" height="95" class="room"/>
<text x="285.0" y="221.5" class="label">KITCHEN</text>
<rect x="170" y="269" width="230" height="130" class="room"/>
<text x="285.0" y="334.0" class="label">BEDROOM</text>
<rect x="170" y="399" width="230" height="90" class="room"/>
<text x="285.0" y="444.0" class="label">BATHROOM</text>
<text x="238" y="56" class="small">FRONT DOOR</text>
<line x1="258" y1="64" x2="258" y2="98" class="thin"/>
<path d="M258 98 A34 34 0 0 1 292 64" class="door"/>
<line x1="274" y1="174" x2="274" y2="204" class="thin"/>
<path d="M274 204 A30 30 0 0 1 304 174" class="door"/>
<line x1="274" y1="269" x2="274" y2="299" class="thin"/>
<path d="M274 299 A30 30 0 0 1 304 269" class="door"/>
<line x1="274" y1="399" x2="274" y2="429" class="thin"/>
<path d="M274 429 A30 30 0 0 1 304 399" class="door"/>
<rect x="195" y="204" width="34" height="26" fill="#FFFFFF" stroke="#1A1A1A" stroke-width="2"/>
<text x="212" y="219" class="tiny" text-anchor="middle">SINK</text>
<rect x="235" y="204" width="34" height="26" fill="#FFFFFF" stroke="#1A1A1A" stroke-width="2"/>
<text x="252" y="219" class="tiny" text-anchor="middle">STV</text>
<rect x="275" y="204" width="34" height="26" fill="#FFFFFF" stroke="#1A1A1A" stroke-width="2"/>
<text x="292" y="219" class="tiny" text-anchor="middle">FRG</text>
<rect x="245" y="314" width="75" height="44" fill="#FFFFFF" stroke="#1A1A1A" stroke-width="2"/>
<line x1="245" y1="327" x2="320" y2="327" class="thin"/>
<text x="282.5" y="340.0" class="tiny" text-anchor="middle">BED</text>
<rect x="208" y="149" width="70" height="26" fill="#FFFFFF" stroke="#1A1A1A" stroke-width="2"/>
<text x="243" y="166" class="tiny" text-anchor="middle">SOFA</text>
<line x1="210" y1="64" x2="270" y2="64" stroke="#FFFFFF" stroke-width="12" stroke-linecap="square"/>
<line x1="210" y1="64" x2="270" y2="64" stroke="#1A1A1A" stroke-width="2" stroke-linecap="square"/>
<line x1="240" y1="489" x2="320" y2="489" stroke="#FFFFFF" stroke-width="12" stroke-linecap="square"/>
<line x1="240" y1="489" x2="320" y2="489" stroke="#1A1A1A" stroke-width="2" stroke-linecap="square"/>
<text x="418" y="324" class="small">NO HALLWAY</text>
<line x1="408" y1="116" x2="408" y2="461" class="dash"/>
<text x="422" y="482" class="small">FORCED ROOM SEQUENCE</text>
<rect x="192" y="264" width="186" height="226" class="flaw"/>
<g transform="translate(520,58)">
<circle cx="0" cy="0" r="22" class="thin"/>
<line x1="0" y1="-28" x2="0" y2="28" class="thin"/>
<line x1="-28" y1="0" x2="28" y2="0" class="thin"/>
<path d="M0 -32 L5 -20 L0 -24 L-5 -20 Z" fill="#1A1A1A"/>
<text x="0" y="-37" class="tiny">N</text>
<text x="34" y="3" class="tiny">E</text>
<text x="0" y="38" class="tiny">S</text>
<text x="-34" y="3" class="tiny">W</text>
</g>
<g transform="translate(405,548)">
<line x1="0" y1="0" x2="120" y2="0" class="thin"/>
<line x1="0" y1="-5" x2="0" y2="5" class="thin"/>
<line x1="120" y1="-5" x2="120" y2="5" class="thin"/>
<text x="60" y="18" class="tiny">NOT TO SCALE</text>
</g>
<text x="40" y="560" class="small">BROOKLYN / 1 BEDROOM</text>
</svg>