<svg xmlns="http://www.w3.org/2000/svg" width="600" height="600" viewBox="0 0 600 600">
<rect x="0" y="0" width="600" height="600" fill="#FFFFFF"/>
<style><![CDATA[
.room{fill:#F5F5F5;stroke:#1A1A1A;stroke-width:8;}
.wall{stroke:#1A1A1A;stroke-width:8;stroke-linecap:square;fill:none;}
.thin{stroke:#1A1A1A;stroke-width:2;fill:none;}
.dash{stroke:#1A1A1A;stroke-width:2;fill:none;stroke-dasharray:7 6;}
.door{stroke:#1A1A1A;stroke-width:2;fill:none;}
.label{font-family:monospace;font-size:11px;fill:#1A1A1A;text-anchor:middle;dominant-baseline:middle;letter-spacing:.8px;}
.small{font-family:monospace;font-size:10px;fill:#1A1A1A;}
.tiny{font-family:monospace;font-size:8px;fill:#1A1A1A;text-anchor:middle;dominant-baseline:middle;}
.flaw{fill:none;stroke:#D00000;stroke-width:1.5;stroke-dasharray:6 5;}
]]></style>
<rect x="85" y="78" width="160" height="120" class="room"/>
<text x="165.0" y="138.0" class="label">LIVING ROOM</text>
<rect x="245" y="78" width="125" height="120" class="room"/>
<text x="307.5" y="138.0" class="label">KITCHEN</text>
<rect x="370" y="78" width="105" height="120" class="room"/>
<text x="422.5" y="138.0" class="label">BATHROOM</text>
<rect x="85" y="198" width="270" height="230" class="room"/>
<text x="220.0" y="313.0" class="label">BEDROOM</text>
<rect x="355" y="198" width="120" height="130" class="room"/>
<text x="415.0" y="263.0" class="label">HALL</text>
<text x="96" y="70" class="small">FRONT DOOR</text>
<line x1="116" y1="78" x2="116" y2="112" class="thin"/>
<path d="M116 112 A34 34 0 0 1 150 78" class="door"/>
<line x1="245" y1="138" x2="245" y2="166" class="thin"/>
<path d="M245 166 A28 28 0 0 1 273 138" class="door"/>
<line x1="370" y1="135" x2="342" y2="135" class="thin"/>
<path d="M342 135 A28 28 0 0 1 370 163" class="door"/>
<line x1="355" y1="245" x2="327" y2="245" class="thin"/>
<path d="M327 245 A28 28 0 0 1 355 273" class="door"/>
<rect x="260" y="98" width="34" height="26" fill="#FFFFFF" stroke="#1A1A1A" stroke-width="2"/>
<text x="277" y="113" class="tiny" text-anchor="middle">SINK</text>
<rect x="300" y="98" width="34" height="26" fill="#FFFFFF" stroke="#1A1A1A" stroke-width="2"/>
<text x="317" y="113" class="tiny" text-anchor="middle">STV</text>
<rect x="340" y="98" width="34" height="26" fill="#FFFFFF" stroke="#1A1A1A" stroke-width="2"/>
<text x="357" y="113" class="tiny" text-anchor="middle">FRG</text>
<rect x="125" y="150" width="70" height="26" fill="#FFFFFF" stroke="#1A1A1A" stroke-width="2"/>
<text x="160" y="167" class="tiny" text-anchor="middle">SOFA</text>
<rect x="162" y="282" width="85" height="52" fill="#FFFFFF" stroke="#1A1A1A" stroke-width="2"/>
<line x1="162" y1="295" x2="247" y2="295" class="thin"/>
<text x="204.5" y="312.0" class="tiny" text-anchor="middle">BED</text>
<line x1="135" y1="428" x2="225" y2="428" stroke="#FFFFFF" stroke-width="12" stroke-linecap="square"/>
<line x1="135" y1="428" x2="225" y2="428" stroke="#1A1A1A" stroke-width="2" stroke-linecap="square"/>
<text x="210" y="450" class="small" text-anchor="middle">NO CLOSET IN BEDROOM</text>
<rect x="94" y="207" width="252" height="212" class="flaw"/>
<g transform="translate(520,58)">
<circle cx="0" cy="0" r="22" class="thin"/>
<line x1="0" y1="-28" x2="0" y2="28" class="thin"/>
<line x1="-28" y1="0" x2="28" y2="0" class="thin"/>
<path d="M0 -32 L5 -20 L0 -24 L-5 -20 Z" fill="#1A1A1A"/>
<text x="0" y="-37" class="tiny">N</text>
<text x="34" y="3" class="tiny">E</text>
<text x="0" y="38" class="tiny">S</text>
<text x="-34" y="3" class="tiny">W</text>
</g>
<g transform="translate(405,548)">
<line x1="0" y1="0" x2="120" y2="0" class="thin"/>
<line x1="0" y1="-5" x2="0" y2="5" class="thin"/>
<line x1="120" y1="-5" x2="120" y2="5" class="thin"/>
<text x="60" y="18" class="tiny">NOT TO SCALE</text>
</g>
<text x="40" y="560" class="small">CHICAGO / 1 BEDROOM</text>
</svg>