<svg xmlns="http://www.w3.org/2000/svg" width="600" height="600" viewBox="0 0 600 600">
<rect x="0" y="0" width="600" height="600" fill="#FFFFFF"/>
<style><![CDATA[
.room{fill:#F5F5F5;stroke:#1A1A1A;stroke-width:8;}
.wall{stroke:#1A1A1A;stroke-width:8;stroke-linecap:square;fill:none;}
.thin{stroke:#1A1A1A;stroke-width:2;fill:none;}
.dash{stroke:#1A1A1A;stroke-width:2;fill:none;stroke-dasharray:7 6;}
.door{stroke:#1A1A1A;stroke-width:2;fill:none;}
.label{font-family:monospace;font-size:11px;fill:#1A1A1A;text-anchor:middle;dominant-baseline:middle;letter-spacing:.8px;}
.small{font-family:monospace;font-size:10px;fill:#1A1A1A;}
.tiny{font-family:monospace;font-size:8px;fill:#1A1A1A;text-anchor:middle;dominant-baseline:middle;}
.flaw{fill:none;stroke:#D00000;stroke-width:1.5;stroke-dasharray:6 5;}
]]></style>
<rect x="80" y="85" width="200" height="150" class="room"/>
<text x="180.0" y="160.0" class="label">LIVING ROOM</text>
<rect x="280" y="85" width="160" height="150" class="room"/>
<text x="360.0" y="160.0" class="label">KITCHEN</text>
<rect x="80" y="235" width="200" height="160" class="room"/>
<text x="180.0" y="315.0" class="label">BEDROOM</text>
<rect x="280" y="235" width="160" height="110" class="room"/>
<text x="360.0" y="290.0" class="label">BATHROOM</text>
<rect x="280" y="345" width="160" height="80" class="room"/>
<text x="360.0" y="385.0" class="label">ENTRY</text>
<text x="300" y="417" class="small">FRONT DOOR</text>
<line x1="320" y1="425" x2="354" y2="425" class="thin"/>
<path d="M354 425 A34 34 0 0 1 320 391" class="door"/>
<line x1="280" y1="160" x2="280" y2="190" class="thin"/>
<path d="M280 190 A30 30 0 0 1 310 160" class="door"/>
<line x1="340" y1="235" x2="340" y2="265" class="thin"/>
<path d="M340 265 A30 30 0 0 1 370 235" class="door"/>
<rect x="303" y="115" width="34" height="26" fill="#FFFFFF" stroke="#1A1A1A" stroke-width="2"/>
<text x="320" y="130" class="tiny" text-anchor="middle">SINK</text>
<rect x="343" y="115" width="34" height="26" fill="#FFFFFF" stroke="#1A1A1A" stroke-width="2"/>
<text x="360" y="130" class="tiny" text-anchor="middle">STV</text>
<rect x="383" y="115" width="34" height="26" fill="#FFFFFF" stroke="#1A1A1A" stroke-width="2"/>
<text x="400" y="130" class="tiny" text-anchor="middle">FRG</text>
<rect x="148" y="300" width="68" height="42" fill="#FFFFFF" stroke="#1A1A1A" stroke-width="2"/>
<line x1="148" y1="313" x2="216" y2="313" class="thin"/>
<text x="182.0" y="325.0" class="tiny" text-anchor="middle">BED</text>
<rect x="145" y="178" width="70" height="26" fill="#FFFFFF" stroke="#1A1A1A" stroke-width="2"/>
<text x="180" y="195" class="tiny" text-anchor="middle">SOFA</text>
<line x1="125" y1="85" x2="210" y2="85" stroke="#FFFFFF" stroke-width="12" stroke-linecap="square"/>
<line x1="125" y1="85" x2="210" y2="85" stroke="#1A1A1A" stroke-width="2" stroke-linecap="square"/>
<line x1="135" y1="395" x2="220" y2="395" stroke="#FFFFFF" stroke-width="12" stroke-linecap="square"/>
<line x1="135" y1="395" x2="220" y2="395" stroke="#1A1A1A" stroke-width="2" stroke-linecap="square"/>
<text x="360" y="220" class="small" text-anchor="middle">BATH DOOR OPENS INTO KITCHEN</text>
<rect x="300" y="185" width="120" height="75" class="flaw"/>
<g transform="translate(520,58)">
<circle cx="0" cy="0" r="22" class="thin"/>
<line x1="0" y1="-28" x2="0" y2="28" class="thin"/>
<line x1="-28" y1="0" x2="28" y2="0" class="thin"/>
<path d="M0 -32 L5 -20 L0 -24 L-5 -20 Z" fill="#1A1A1A"/>
<text x="0" y="-37" class="tiny">N</text>
<text x="34" y="3" class="tiny">E</text>
<text x="0" y="38" class="tiny">S</text>
<text x="-34" y="3" class="tiny">W</text>
</g>
<g transform="translate(405,548)">
<line x1="0" y1="0" x2="120" y2="0" class="thin"/>
<line x1="0" y1="-5" x2="0" y2="5" class="thin"/>
<line x1="120" y1="-5" x2="120" y2="5" class="thin"/>
<text x="60" y="18" class="tiny">NOT TO SCALE</text>
</g>
<text x="40" y="560" class="small">PORTLAND / 1 BEDROOM</text>
</svg>