<svg xmlns="http://www.w3.org/2000/svg" width="600" height="600" viewBox="0 0 600 600">
<rect x="0" y="0" width="600" height="600" fill="#FFFFFF"/>
<style><![CDATA[
.room{fill:#F5F5F5;stroke:#1A1A1A;stroke-width:8;}
.wall{stroke:#1A1A1A;stroke-width:8;stroke-linecap:square;fill:none;}
.thin{stroke:#1A1A1A;stroke-width:2;fill:none;}
.dash{stroke:#1A1A1A;stroke-width:2;fill:none;stroke-dasharray:7 6;}
.door{stroke:#1A1A1A;stroke-width:2;fill:none;}
.label{font-family:monospace;font-size:11px;fill:#1A1A1A;text-anchor:middle;dominant-baseline:middle;letter-spacing:.8px;}
.small{font-family:monospace;font-size:10px;fill:#1A1A1A;}
.tiny{font-family:monospace;font-size:8px;fill:#1A1A1A;text-anchor:middle;dominant-baseline:middle;}
.flaw{fill:none;stroke:#D00000;stroke-width:1.5;stroke-dasharray:6 5;}
]]></style>
<rect x="80" y="80" width="210" height="180" class="room"/>
<text x="185.0" y="170.0" class="label">LIVING ROOM</text>
<rect x="290" y="80" width="175" height="180" class="room"/>
<text x="377.5" y="170.0" class="label">BEDROOM 2</text>
<rect x="80" y="260" width="210" height="160" class="room"/>
<text x="185.0" y="340.0" class="label">KITCHEN</text>
<rect x="290" y="260" width="175" height="160" class="room"/>
<text x="377.5" y="340.0" class="label">BEDROOM 1</text>
<rect x="465" y="260" width="90" height="110" class="room"/>
<text x="510.0" y="315.0" class="label">BATHROOM</text>
<text x="98" y="72" class="small">FRONT DOOR</text>
<line x1="118" y1="80" x2="118" y2="114" class="thin"/>
<path d="M118 114 A34 34 0 0 1 152 80" class="door"/>
<line x1="290" y1="80" x2="290" y2="260" class="wall"/>
<text x="378" y="66" class="small" text-anchor="middle">ADDED PARTITION WALL</text>
<line x1="290" y1="140" x2="290" y2="168" class="thin"/>
<path d="M290 168 A28 28 0 0 1 318 140" class="door"/>
<line x1="290" y1="218" x2="318" y2="218" class="thin"/>
<path d="M318 218 A28 28 0 0 1 290 190" class="door"/>
<line x1="465" y1="315" x2="437" y2="315" class="thin"/>
<path d="M437 315 A28 28 0 0 1 465 343" class="door"/>
<line x1="290" y1="330" x2="290" y2="358" class="thin"/>
<path d="M290 358 A28 28 0 0 1 318 330" class="door"/>
<rect x="105" y="292" width="34" height="26" fill="#FFFFFF" stroke="#1A1A1A" stroke-width="2"/>
<text x="122" y="307" class="tiny" text-anchor="middle">SINK</text>
<rect x="145" y="292" width="34" height="26" fill="#FFFFFF" stroke="#1A1A1A" stroke-width="2"/>
<text x="162" y="307" class="tiny" text-anchor="middle">STV</text>
<rect x="185" y="292" width="34" height="26" fill="#FFFFFF" stroke="#1A1A1A" stroke-width="2"/>
<text x="202" y="307" class="tiny" text-anchor="middle">FRG</text>
<rect x="140" y="172" width="70" height="26" fill="#FFFFFF" stroke="#1A1A1A" stroke-width="2"/>
<text x="175" y="189" class="tiny" text-anchor="middle">SOFA</text>
<rect x="345" y="140" width="68" height="42" fill="#FFFFFF" stroke="#1A1A1A" stroke-width="2"/>
<line x1="345" y1="153" x2="413" y2="153" class="thin"/>
<text x="379.0" y="165.0" class="tiny" text-anchor="middle">BED</text>
<rect x="342" y="332" width="68" height="42" fill="#FFFFFF" stroke="#1A1A1A" stroke-width="2"/>
<line x1="342" y1="345" x2="410" y2="345" class="thin"/>
<text x="376.0" y="357.0" class="tiny" text-anchor="middle">BED</text>
<line x1="126" y1="80" x2="210" y2="80" stroke="#FFFFFF" stroke-width="12" stroke-linecap="square"/>
<line x1="126" y1="80" x2="210" y2="80" stroke="#1A1A1A" stroke-width="2" stroke-linecap="square"/>
<line x1="340" y1="420" x2="420" y2="420" stroke="#FFFFFF" stroke-width="12" stroke-linecap="square"/>
<line x1="340" y1="420" x2="420" y2="420" stroke="#1A1A1A" stroke-width="2" stroke-linecap="square"/>
<text x="377" y="225" class="small" text-anchor="middle">TWO DOORS / NO CLOSET</text>
<rect x="280" y="72" width="196" height="198" class="flaw"/>
<g transform="translate(520,58)">
<circle cx="0" cy="0" r="22" class="thin"/>
<line x1="0" y1="-28" x2="0" y2="28" class="thin"/>
<line x1="-28" y1="0" x2="28" y2="0" class="thin"/>
<path d="M0 -32 L5 -20 L0 -24 L-5 -20 Z" fill="#1A1A1A"/>
<text x="0" y="-37" class="tiny">N</text>
<text x="34" y="3" class="tiny">E</text>
<text x="0" y="38" class="tiny">S</text>
<text x="-34" y="3" class="tiny">W</text>
</g>
<g transform="translate(405,548)">
<line x1="0" y1="0" x2="120" y2="0" class="thin"/>
<line x1="0" y1="-5" x2="0" y2="5" class="thin"/>
<line x1="120" y1="-5" x2="120" y2="5" class="thin"/>
<text x="60" y="18" class="tiny">NOT TO SCALE</text>
</g>
<text x="40" y="560" class="small">BOSTON / 2 BEDROOM</text>
</svg>