<svg xmlns="http://www.w3.org/2000/svg" width="600" height="600" viewBox="0 0 600 600">
<rect x="0" y="0" width="600" height="600" fill="#FFFFFF"/>
<style><![CDATA[
.room{fill:#F5F5F5;stroke:#1A1A1A;stroke-width:8;}
.wall{stroke:#1A1A1A;stroke-width:8;stroke-linecap:square;fill:none;}
.thin{stroke:#1A1A1A;stroke-width:2;fill:none;}
.dash{stroke:#1A1A1A;stroke-width:2;fill:none;stroke-dasharray:7 6;}
.door{stroke:#1A1A1A;stroke-width:2;fill:none;}
.label{font-family:monospace;font-size:11px;fill:#1A1A1A;text-anchor:middle;dominant-baseline:middle;letter-spacing:.8px;}
.small{font-family:monospace;font-size:10px;fill:#1A1A1A;}
.tiny{font-family:monospace;font-size:8px;fill:#1A1A1A;text-anchor:middle;dominant-baseline:middle;}
.flaw{fill:none;stroke:#D00000;stroke-width:1.5;stroke-dasharray:6 5;}
]]></style>
<rect x="120" y="80" width="200" height="150" class="room"/>
<text x="220.0" y="155.0" class="label">LIVING ROOM</text>
<rect x="320" y="80" width="160" height="150" class="room"/>
<text x="400.0" y="155.0" class="label">KITCHEN</text>
<rect x="120" y="230" width="180" height="160" class="room"/>
<text x="210.0" y="310.0" class="label">BEDROOM 1</text>
<rect x="300" y="230" width="180" height="160" class="room"/>
<text x="390.0" y="310.0" class="label">BEDROOM 2</text>
<rect x="320" y="390" width="160" height="95" class="room"/>
<text x="400.0" y="437.5" class="label">BATHROOM</text>
<text x="412" y="477" class="small">FRONT DOOR</text>
<line x1="432" y1="485" x2="432" y2="451" class="thin"/>
<path d="M432 451 A34 34 0 0 1 398 485" class="door"/>
<line x1="320" y1="155" x2="320" y2="183" class="thin"/>
<path d="M320 183 A28 28 0 0 1 348 155" class="door"/>
<line x1="300" y1="300" x2="300" y2="328" class="thin"/>
<path d="M300 328 A28 28 0 0 1 328 300" class="door"/>
<line x1="320" y1="430" x2="348" y2="430" class="thin"/>
<path d="M348 430 A28 28 0 0 1 320 402" class="door"/>
<rect x="345" y="105" width="34" height="26" fill="#FFFFFF" stroke="#1A1A1A" stroke-width="2"/>
<text x="362" y="120" class="tiny" text-anchor="middle">SINK</text>
<rect x="385" y="105" width="34" height="26" fill="#FFFFFF" stroke="#1A1A1A" stroke-width="2"/>
<text x="402" y="120" class="tiny" text-anchor="middle">STV</text>
<rect x="425" y="105" width="34" height="26" fill="#FFFFFF" stroke="#1A1A1A" stroke-width="2"/>
<text x="442" y="120" class="tiny" text-anchor="middle">FRG</text>
<rect x="174" y="300" width="68" height="42" fill="#FFFFFF" stroke="#1A1A1A" stroke-width="2"/>
<line x1="174" y1="313" x2="242" y2="313" class="thin"/>
<text x="208.0" y="325.0" class="tiny" text-anchor="middle">BED</text>
<rect x="355" y="300" width="68" height="42" fill="#FFFFFF" stroke="#1A1A1A" stroke-width="2"/>
<line x1="355" y1="313" x2="423" y2="313" class="thin"/>
<text x="389.0" y="325.0" class="tiny" text-anchor="middle">BED</text>
<rect x="175" y="170" width="70" height="26" fill="#FFFFFF" stroke="#1A1A1A" stroke-width="2"/>
<text x="210" y="187" class="tiny" text-anchor="middle">SOFA</text>
<line x1="120" y1="112" x2="120" y2="190" stroke="#FFFFFF" stroke-width="12" stroke-linecap="square"/>
<line x1="120" y1="112" x2="120" y2="190" stroke="#1A1A1A" stroke-width="2" stroke-linecap="square"/>
<line x1="120" y1="258" x2="120" y2="330" stroke="#FFFFFF" stroke-width="12" stroke-linecap="square"/>
<line x1="120" y1="258" x2="120" y2="330" stroke="#1A1A1A" stroke-width="2" stroke-linecap="square"/>
<text x="72" y="120" class="label" text-anchor="middle">W</text>
<text x="62" y="220" class="small">ALL WINDOWS WEST</text>
<text x="62" y="238" class="small">NO SHADE</text>
<line x1="45" y1="125" x2="112" y2="125" class="dash"/>
<line x1="45" y1="295" x2="112" y2="295" class="dash"/>
<rect x="106" y="100" width="34" height="245" class="flaw"/>
<g transform="translate(520,58)">
<circle cx="0" cy="0" r="22" class="thin"/>
<line x1="0" y1="-28" x2="0" y2="28" class="thin"/>
<line x1="-28" y1="0" x2="28" y2="0" class="thin"/>
<path d="M0 -32 L5 -20 L0 -24 L-5 -20 Z" fill="#1A1A1A"/>
<text x="0" y="-37" class="tiny">N</text>
<text x="34" y="3" class="tiny">E</text>
<text x="0" y="38" class="tiny">S</text>
<text x="-34" y="3" class="tiny">W</text>
</g>
<g transform="translate(405,548)">
<line x1="0" y1="0" x2="120" y2="0" class="thin"/>
<line x1="0" y1="-5" x2="0" y2="5" class="thin"/>
<line x1="120" y1="-5" x2="120" y2="5" class="thin"/>
<text x="60" y="18" class="tiny">NOT TO SCALE</text>
</g>
<text x="40" y="560" class="small">PHOENIX / 2 BEDROOM</text>
</svg>