<svg xmlns="http://www.w3.org/2000/svg" width="600" height="600" viewBox="0 0 600 600">
<rect x="0" y="0" width="600" height="600" fill="#FFFFFF"/>
<style><![CDATA[
.room{fill:#F5F5F5;stroke:#1A1A1A;stroke-width:8;}
.wall{stroke:#1A1A1A;stroke-width:8;stroke-linecap:square;fill:none;}
.thin{stroke:#1A1A1A;stroke-width:2;fill:none;}
.dash{stroke:#1A1A1A;stroke-width:2;fill:none;stroke-dasharray:7 6;}
.door{stroke:#1A1A1A;stroke-width:2;fill:none;}
.label{font-family:monospace;font-size:11px;fill:#1A1A1A;text-anchor:middle;dominant-baseline:middle;letter-spacing:.8px;}
.small{font-family:monospace;font-size:10px;fill:#1A1A1A;}
.tiny{font-family:monospace;font-size:8px;fill:#1A1A1A;text-anchor:middle;dominant-baseline:middle;}
.flaw{fill:none;stroke:#D00000;stroke-width:1.5;stroke-dasharray:6 5;}
]]></style>
<rect x="80" y="80" width="195" height="150" class="room"/>
<text x="177.5" y="155.0" class="label">LIVING ROOM</text>
<rect x="275" y="80" width="165" height="150" class="room"/>
<text x="357.5" y="155.0" class="label">KITCHEN</text>
<rect x="80" y="230" width="180" height="160" class="room"/>
<text x="170.0" y="310.0" class="label">BEDROOM 1</text>
<rect x="260" y="230" width="180" height="160" class="room"/>
<text x="350.0" y="310.0" class="label">BEDROOM 2</text>
<rect x="440" y="230" width="100" height="115" class="room"/>
<text x="490.0" y="287.5" class="label">BATHROOM</text>
<text x="96" y="72" class="small">FRONT DOOR</text>
<line x1="116" y1="80" x2="116" y2="114" class="thin"/>
<path d="M116 114 A34 34 0 0 1 150 80" class="door"/>
<line x1="275" y1="155" x2="275" y2="183" class="thin"/>
<path d="M275 183 A28 28 0 0 1 303 155" class="door"/>
<line x1="260" y1="300" x2="260" y2="328" class="thin"/>
<path d="M260 328 A28 28 0 0 1 288 300" class="door"/>
<line x1="440" y1="290" x2="412" y2="290" class="thin"/>
<path d="M412 290 A28 28 0 0 1 440 318" class="door"/>
<rect x="300" y="105" width="34" height="26" fill="#FFFFFF" stroke="#1A1A1A" stroke-width="2"/>
<text x="317" y="120" class="tiny" text-anchor="middle">SINK</text>
<rect x="340" y="105" width="34" height="26" fill="#FFFFFF" stroke="#1A1A1A" stroke-width="2"/>
<text x="357" y="120" class="tiny" text-anchor="middle">STV</text>
<rect x="380" y="105" width="34" height="26" fill="#FFFFFF" stroke="#1A1A1A" stroke-width="2"/>
<text x="397" y="120" class="tiny" text-anchor="middle">FRG</text>
<rect x="130" y="302" width="68" height="42" fill="#FFFFFF" stroke="#1A1A1A" stroke-width="2"/>
<line x1="130" y1="315" x2="198" y2="315" class="thin"/>
<text x="164.0" y="327.0" class="tiny" text-anchor="middle">BED</text>
<rect x="315" y="302" width="68" height="42" fill="#FFFFFF" stroke="#1A1A1A" stroke-width="2"/>
<line x1="315" y1="315" x2="383" y2="315" class="thin"/>
<text x="349.0" y="327.0" class="tiny" text-anchor="middle">BED</text>
<line x1="120" y1="80" x2="210" y2="80" stroke="#FFFFFF" stroke-width="12" stroke-linecap="square"/>
<line x1="120" y1="80" x2="210" y2="80" stroke="#1A1A1A" stroke-width="2" stroke-linecap="square"/>
<rect x="320" y="390" width="60" height="26" fill="#FFFFFF" stroke="#1A1A1A" stroke-width="2"/>
<text x="350" y="410" class="tiny" text-anchor="middle">WINDOW WELL</text>
<line x1="250" y1="295" x2="455" y2="295" class="dash"/>
<text x="466" y="298" class="small">GRADE LEVEL</text>
<text x="350" y="218" class="small" text-anchor="middle">BEDROOM CUT BY GRADE LINE</text>
<rect x="252" y="220" width="196" height="206" class="flaw"/>
<g transform="translate(520,58)">
<circle cx="0" cy="0" r="22" class="thin"/>
<line x1="0" y1="-28" x2="0" y2="28" class="thin"/>
<line x1="-28" y1="0" x2="28" y2="0" class="thin"/>
<path d="M0 -32 L5 -20 L0 -24 L-5 -20 Z" fill="#1A1A1A"/>
<text x="0" y="-37" class="tiny">N</text>
<text x="34" y="3" class="tiny">E</text>
<text x="0" y="38" class="tiny">S</text>
<text x="-34" y="3" class="tiny">W</text>
</g>
<g transform="translate(405,548)">
<line x1="0" y1="0" x2="120" y2="0" class="thin"/>
<line x1="0" y1="-5" x2="0" y2="5" class="thin"/>
<line x1="120" y1="-5" x2="120" y2="5" class="thin"/>
<text x="60" y="18" class="tiny">NOT TO SCALE</text>
</g>
<text x="40" y="560" class="small">SEATTLE / 2 BEDROOM</text>
</svg>