<svg xmlns="http://www.w3.org/2000/svg" width="600" height="600" viewBox="0 0 600 600">
<rect x="0" y="0" width="600" height="600" fill="#FFFFFF"/>
<style><![CDATA[
.room{fill:#F5F5F5;stroke:#1A1A1A;stroke-width:8;}
.wall{stroke:#1A1A1A;stroke-width:8;stroke-linecap:square;fill:none;}
.thin{stroke:#1A1A1A;stroke-width:2;fill:none;}
.dash{stroke:#1A1A1A;stroke-width:2;fill:none;stroke-dasharray:7 6;}
.door{stroke:#1A1A1A;stroke-width:2;fill:none;}
.label{font-family:monospace;font-size:11px;fill:#1A1A1A;text-anchor:middle;dominant-baseline:middle;letter-spacing:.8px;}
.small{font-family:monospace;font-size:10px;fill:#1A1A1A;}
.tiny{font-family:monospace;font-size:8px;fill:#1A1A1A;text-anchor:middle;dominant-baseline:middle;}
.flaw{fill:none;stroke:#D00000;stroke-width:1.5;stroke-dasharray:6 5;}
]]></style>
<rect x="70" y="80" width="190" height="150" class="room"/>
<text x="165.0" y="155.0" class="label">LIVING ROOM</text>
<rect x="260" y="80" width="150" height="150" class="room"/>
<text x="335.0" y="155.0" class="label">KITCHEN</text>
<rect x="410" y="80" width="105" height="150" class="room"/>
<text x="462.5" y="155.0" class="label">BATHROOM</text>
<rect x="70" y="230" width="190" height="170" class="room"/>
<text x="165.0" y="315.0" class="label">BEDROOM 1</text>
<rect x="260" y="230" width="150" height="170" class="room"/>
<text x="335.0" y="315.0" class="label">BEDROOM 2</text>
<rect x="410" y="230" width="105" height="170" class="room"/>
<text x="462.5" y="315.0" class="label">HALL</text>
<text x="94" y="72" class="small">FRONT DOOR</text>
<line x1="114" y1="80" x2="114" y2="114" class="thin"/>
<path d="M114 114 A34 34 0 0 1 148 80" class="door"/>
<line x1="260" y1="150" x2="260" y2="178" class="thin"/>
<path d="M260 178 A28 28 0 0 1 288 150" class="door"/>
<line x1="410" y1="145" x2="382" y2="145" class="thin"/>
<path d="M382 145 A28 28 0 0 1 410 173" class="door"/>
<line x1="260" y1="295" x2="260" y2="323" class="thin"/>
<path d="M260 323 A28 28 0 0 1 288 295" class="door"/>
<line x1="410" y1="295" x2="382" y2="295" class="thin"/>
<path d="M382 295 A28 28 0 0 1 410 323" class="door"/>
<rect x="282" y="112" width="34" height="26" fill="#FFFFFF" stroke="#1A1A1A" stroke-width="2"/>
<text x="299" y="127" class="tiny" text-anchor="middle">SINK</text>
<rect x="322" y="112" width="34" height="26" fill="#FFFFFF" stroke="#1A1A1A" stroke-width="2"/>
<text x="339" y="127" class="tiny" text-anchor="middle">STV</text>
<rect x="362" y="112" width="34" height="26" fill="#FFFFFF" stroke="#1A1A1A" stroke-width="2"/>
<text x="379" y="127" class="tiny" text-anchor="middle">FRG</text>
<rect x="125" y="304" width="68" height="42" fill="#FFFFFF" stroke="#1A1A1A" stroke-width="2"/>
<line x1="125" y1="317" x2="193" y2="317" class="thin"/>
<text x="159.0" y="329.0" class="tiny" text-anchor="middle">BED</text>
<rect x="302" y="305" width="68" height="42" fill="#FFFFFF" stroke="#1A1A1A" stroke-width="2"/>
<line x1="302" y1="318" x2="370" y2="318" class="thin"/>
<text x="336.0" y="330.0" class="tiny" text-anchor="middle">BED</text>
<line x1="120" y1="400" x2="210" y2="400" stroke="#FFFFFF" stroke-width="12" stroke-linecap="square"/>
<line x1="120" y1="400" x2="210" y2="400" stroke="#1A1A1A" stroke-width="2" stroke-linecap="square"/>
<line x1="100" y1="80" x2="180" y2="80" stroke="#FFFFFF" stroke-width="12" stroke-linecap="square"/>
<line x1="100" y1="80" x2="180" y2="80" stroke="#1A1A1A" stroke-width="2" stroke-linecap="square"/>
<text x="335" y="420" class="small" text-anchor="middle">BEDROOM 2 HAS NO WINDOW GAP</text>
<rect x="268" y="238" width="134" height="154" class="flaw"/>
<g transform="translate(520,58)">
<circle cx="0" cy="0" r="22" class="thin"/>
<line x1="0" y1="-28" x2="0" y2="28" class="thin"/>
<line x1="-28" y1="0" x2="28" y2="0" class="thin"/>
<path d="M0 -32 L5 -20 L0 -24 L-5 -20 Z" fill="#1A1A1A"/>
<text x="0" y="-37" class="tiny">N</text>
<text x="34" y="3" class="tiny">E</text>
<text x="0" y="38" class="tiny">S</text>
<text x="-34" y="3" class="tiny">W</text>
</g>
<g transform="translate(405,548)">
<line x1="0" y1="0" x2="120" y2="0" class="thin"/>
<line x1="0" y1="-5" x2="0" y2="5" class="thin"/>
<line x1="120" y1="-5" x2="120" y2="5" class="thin"/>
<text x="60" y="18" class="tiny">NOT TO SCALE</text>
</g>
<text x="40" y="560" class="small">MIAMI / 2 BEDROOM</text>
</svg>