<svg xmlns="http://www.w3.org/2000/svg" viewBox="0 0 600 300" width="600" height="300">
<rect width="600" height="300" fill="#080818"/>
<circle cx="80" cy="22" r="1" fill="white" opacity="0.5"/>
<circle cx="300" cy="18" r="1.2" fill="white" opacity="0.4"/>
<circle cx="500" cy="30" r="1" fill="white" opacity="0.6"/>
<circle cx="560" cy="40" r="18" fill="#2D5BE3" opacity="0.08"/>
<circle cx="560" cy="40" r="10" fill="white" opacity="0.7"/>
<!-- Peach tree (left) -->
<line x1="35" y1="210" x2="35" y2="150" stroke="#5a3a1a" stroke-width="4"/>
<line x1="35" y1="170" x2="20" y2="155" stroke="#5a3a1a" stroke-width="2"/>
<line x1="35" y1="162" x2="50" y2="148" stroke="#5a3a1a" stroke-width="2"/>
<circle cx="35" cy="148" r="14" fill="#2d4a1a" opacity="0.8"/>
<circle cx="20" cy="153" r="10" fill="#2d4a1a" opacity="0.7"/>
<circle cx="50" cy="146" r="10" fill="#2d4a1a" opacity="0.7"/>
<!-- Peach fruit -->
<circle cx="35" cy="148" r="4" fill="#ff8844" opacity="0.7"/>
<!-- Atlanta buildings -->
<rect x="70" y="105" width="24" height="105" fill="#111827"/>
<rect x="100" y="90" width="28" height="120" fill="#0f172a"/>
<rect x="134" y="102" width="22" height="108" fill="#111827"/>
<rect x="162" y="88" width="26" height="122" fill="#0f172a"/>
<!-- Bank of America Plaza (tallest) -->
<rect x="194" y="68" width="30" height="142" fill="#0f172a"/>
<rect x="197" y="60" width="24" height="12" fill="#111827"/>
<rect x="200" y="52" width="18" height="10" fill="#0f172a"/>
<rect x="203" y="44" width="12" height="10" fill="#111827"/>
<rect x="205" y="36" width="8" height="10" fill="#0f172a"/>
<!-- Antenna -->
<line x1="209" y1="36" x2="209" y2="22" stroke="#8899aa" stroke-width="2"/>
<rect x="230" y="100" width="22" height="110" fill="#111827"/>
<rect x="258" y="88" width="26" height="122" fill="#0f172a"/>
<rect x="290" y="100" width="22" height="110" fill="#111827"/>
<rect x="318" y="90" width="28" height="120" fill="#0f172a"/>
<rect x="352" y="102" width="22" height="108" fill="#111827"/>
<rect x="380" y="88" width="26" height="122" fill="#0f172a"/>
<rect x="412" y="100" width="22" height="110" fill="#111827"/>
<rect x="440" y="90" width="26" height="120" fill="#0f172a"/>
<rect x="472" y="102" width="22" height="108" fill="#111827"/>
<rect x="500" y="88" width="26" height="122" fill="#0f172a"/>
<rect x="532" y="100" width="22" height="110" fill="#111827"/>
<rect x="560" y="90" width="24" height="120" fill="#0f172a"/>
<!-- Windows -->
<rect x="104" y="100" width="4" height="5" fill="#2D5BE3" opacity="0.5"/>
<rect x="166" y="98" width="4" height="5" fill="#2D5BE3" opacity="0.4"/>
<rect x="198" y="78" width="4" height="5" fill="#2D5BE3" opacity="0.5"/>
<rect x="198" y="90" width="4" height="5" fill="#2D5BE3" opacity="0.3"/>
<rect x="262" y="98" width="4" height="5" fill="#2D5BE3" opacity="0.4"/>
<rect x="322" y="100" width="4" height="5" fill="#2D5BE3" opacity="0.5"/>
<rect x="384" y="98" width="4" height="5" fill="#2D5BE3" opacity="0.4"/>
<rect x="504" y="98" width="4" height="5" fill="#2D5BE3" opacity="0.5"/>
<rect x="0" y="210" width="600" height="90" fill="#050508"/>
<line x1="0" y1="210" x2="600" y2="210" stroke="#2D5BE3" stroke-width="1" opacity="0.4"/>
<rect x="0" y="118" width="600" height="62" fill="black" opacity="0.65"/>
<line x1="40" y1="121" x2="560" y2="121" stroke="#2D5BE3" stroke-width="1" opacity="0.8"/>
<text x="300" y="160" font-family="monospace" font-size="26" font-weight="700" fill="white" text-anchor="middle" letter-spacing="6">ATLANTA</text>
<line x1="40" y1="177" x2="560" y2="177" stroke="#2D5BE3" stroke-width="1" opacity="0.8"/>
</svg>