<svg xmlns="http://www.w3.org/2000/svg" viewBox="0 0 600 300" width="600" height="300">
<rect width="600" height="300" fill="#080818"/>
<circle cx="80" cy="25" r="1" fill="white" opacity="0.5"/>
<circle cx="200" cy="38" r="1.2" fill="white" opacity="0.4"/>
<circle cx="400" cy="20" r="1" fill="white" opacity="0.6"/>
<circle cx="540" cy="32" r="1.5" fill="white" opacity="0.3"/>
<circle cx="560" cy="40" r="18" fill="#2D5BE3" opacity="0.08"/>
<circle cx="560" cy="40" r="10" fill="white" opacity="0.7"/>
<!-- Texas State Capitol -->
<rect x="255" y="130" width="90" height="80" fill="#1e2a4a"/>
<!-- Capitol wings -->
<rect x="235" y="148" width="25" height="50" fill="#1a2438"/>
<rect x="340" y="148" width="25" height="50" fill="#1a2438"/>
<!-- Capitol dome -->
<ellipse cx="300" cy="130" rx="28" ry="18" fill="#243050"/>
<ellipse cx="300" cy="120" rx="20" ry="14" fill="#1e2a4a"/>
<ellipse cx="300" cy="112" rx="12" ry="9" fill="#243050"/>
<!-- Dome lantern -->
<rect x="296" y="100" width="8" height="14" fill="#1a2438"/>
<rect x="297" y="93" width="6" height="9" fill="#243050"/>
<!-- Texas star on top -->
<text x="300" y="93" font-family="serif" font-size="10" fill="#ffcc44" text-anchor="middle" opacity="0.9">★</text>
<!-- Capitol steps -->
<rect x="265" y="208" width="70" height="4" fill="#1a2438"/>
<rect x="260" y="204" width="80" height="5" fill="#243050"/>
<!-- Austin buildings -->
<rect x="40" y="115" width="22" height="95" fill="#111827"/>
<rect x="68" y="100" width="26" height="110" fill="#0f172a"/>
<rect x="100" y="112" width="20" height="98" fill="#111827"/>
<rect x="126" y="95" width="28" height="115" fill="#0f172a"/>
<rect x="160" y="108" width="22" height="102" fill="#111827"/>
<rect x="188" y="98" width="24" height="112" fill="#0f172a"/>
<rect x="218" y="115" width="18" height="95" fill="#111827"/>
<rect x="382" y="112" width="20" height="98" fill="#111827"/>
<rect x="408" y="98" width="26" height="112" fill="#0f172a"/>
<rect x="440" y="108" width="22" height="102" fill="#111827"/>
<rect x="468" y="95" width="28" height="115" fill="#0f172a"/>
<rect x="502" y="108" width="22" height="102" fill="#111827"/>
<rect x="530" y="98" width="24" height="112" fill="#0f172a"/>
<rect x="560" y="112" width="20" height="98" fill="#111827"/>
<!-- Windows -->
<rect x="72" y="110" width="4" height="5" fill="#2D5BE3" opacity="0.5"/>
<rect x="130" y="105" width="4" height="5" fill="#2D5BE3" opacity="0.4"/>
<rect x="192" y="108" width="4" height="5" fill="#2D5BE3" opacity="0.5"/>
<rect x="412" y="108" width="4" height="5" fill="#2D5BE3" opacity="0.4"/>
<rect x="472" y="105" width="4" height="5" fill="#2D5BE3" opacity="0.5"/>
<rect x="534" y="108" width="4" height="5" fill="#2D5BE3" opacity="0.4"/>
<rect x="0" y="210" width="600" height="90" fill="#050508"/>
<line x1="0" y1="210" x2="600" y2="210" stroke="#2D5BE3" stroke-width="1" opacity="0.4"/>
<rect x="0" y="118" width="600" height="62" fill="black" opacity="0.65"/>
<line x1="40" y1="121" x2="560" y2="121" stroke="#2D5BE3" stroke-width="1" opacity="0.8"/>
<text x="300" y="160" font-family="monospace" font-size="26" font-weight="700" fill="white" text-anchor="middle" letter-spacing="6">AUSTIN</text>
<line x1="40" y1="177" x2="560" y2="177" stroke="#2D5BE3" stroke-width="1" opacity="0.8"/>
</svg>