<svg xmlns="http://www.w3.org/2000/svg" viewBox="0 0 600 300" width="600" height="300">
<rect width="600" height="300" fill="#080818"/>
<circle cx="80" cy="25" r="1" fill="white" opacity="0.5"/>
<circle cx="200" cy="38" r="1.2" fill="white" opacity="0.4"/>
<circle cx="380" cy="20" r="1" fill="white" opacity="0.6"/>
<circle cx="520" cy="30" r="1.5" fill="white" opacity="0.3"/>
<circle cx="560" cy="40" r="18" fill="#1A1A1A" opacity="0.3"/>
<circle cx="560" cy="40" r="10" fill="white" opacity="0.7"/>
<!-- Old North Church steeple -->
<rect x="55" y="148" width="22" height="62" fill="#1e2a4a"/>
<rect x="58" y="138" width="16" height="12" fill="#243050"/>
<rect x="61" y="128" width="10" height="12" fill="#1e2a4a"/>
<rect x="63" y="118" width="6" height="12" fill="#243050"/>
<rect x="65" y="108" width="2" height="12" fill="#8899aa"/>
<circle cx="66" cy="106" r="2" fill="#8899aa"/>
<!-- Faneuil Hall -->
<rect x="120" y="158" width="55" height="52" fill="#1a2438"/>
<rect x="118" y="152" width="59" height="8" fill="#243050"/>
<!-- Faneuil Hall cupola -->
<rect x="137" y="140" width="20" height="14" fill="#1e2a4a"/>
<rect x="140" y="132" width="14" height="10" fill="#243050"/>
<rect x="143" y="124" width="8" height="10" fill="#1e2a4a"/>
<!-- Grasshopper weathervane -->
<line x1="147" y1="124" x2="147" y2="116" stroke="#8899aa" stroke-width="1.5"/>
<text x="147" y="116" font-size="8" fill="#ccaa44" text-anchor="middle">🦗</text>
<!-- Columns on Faneuil Hall -->
<rect x="125" y="158" width="3" height="40" fill="#8899aa" opacity="0.4"/>
<rect x="134" y="158" width="3" height="40" fill="#8899aa" opacity="0.4"/>
<rect x="143" y="158" width="3" height="40" fill="#8899aa" opacity="0.4"/>
<rect x="152" y="158" width="3" height="40" fill="#8899aa" opacity="0.4"/>
<rect x="161" y="158" width="3" height="40" fill="#8899aa" opacity="0.4"/>
<rect x="170" y="158" width="3" height="40" fill="#8899aa" opacity="0.4"/>
<!-- Boston buildings -->
<rect x="200" y="100" width="24" height="110" fill="#111827"/>
<rect x="230" y="88" width="28" height="122" fill="#0f172a"/>
<rect x="264" y="105" width="22" height="105" fill="#111827"/>
<rect x="292" y="90" width="26" height="120" fill="#0f172a"/>
<rect x="324" y="102" width="22" height="108" fill="#111827"/>
<rect x="352" y="88" width="28" height="122" fill="#0f172a"/>
<rect x="386" y="100" width="24" height="110" fill="#111827"/>
<rect x="416" y="90" width="26" height="120" fill="#0f172a"/>
<rect x="448" y="102" width="22" height="108" fill="#111827"/>
<rect x="476" y="88" width="28" height="122" fill="#0f172a"/>
<rect x="510" y="100" width="24" height="110" fill="#111827"/>
<rect x="540" y="90" width="26" height="120" fill="#0f172a"/>
<rect x="572" y="105" width="22" height="105" fill="#111827"/>
<!-- Windows -->
<rect x="204" y="110" width="4" height="5" fill="#1A1A1A" opacity="0.8"/>
<rect x="234" y="98" width="4" height="5" fill="#1A1A1A" opacity="0.7"/>
<rect x="296" y="100" width="4" height="5" fill="#1A1A1A" opacity="0.6"/>
<rect x="356" y="98" width="4" height="5" fill="#1A1A1A" opacity="0.7"/>
<rect x="420" y="100" width="4" height="5" fill="#1A1A1A" opacity="0.6"/>
<rect x="480" y="98" width="4" height="5" fill="#1A1A1A" opacity="0.7"/>
<rect x="0" y="210" width="600" height="90" fill="#050508"/>
<line x1="0" y1="210" x2="600" y2="210" stroke="#1A1A1A" stroke-width="1" opacity="0.6"/>
<rect x="0" y="118" width="600" height="62" fill="black" opacity="0.65"/>
<line x1="40" y1="121" x2="560" y2="121" stroke="#8899aa" stroke-width="1" opacity="0.8"/>
<text x="300" y="160" font-family="monospace" font-size="26" font-weight="700" fill="white" text-anchor="middle" letter-spacing="6">BOSTON</text>
<line x1="40" y1="177" x2="560" y2="177" stroke="#8899aa" stroke-width="1" opacity="0.8"/>
</svg>