<svg xmlns="http://www.w3.org/2000/svg" viewBox="0 0 600 300" width="600" height="300">
<rect width="600" height="300" fill="#080818"/>
<circle cx="80" cy="22" r="1" fill="white" opacity="0.5"/>
<circle cx="200" cy="35" r="1.2" fill="white" opacity="0.4"/>
<circle cx="400" cy="18" r="1" fill="white" opacity="0.6"/>
<circle cx="540" cy="30" r="1.5" fill="white" opacity="0.3"/>
<circle cx="560" cy="40" r="18" fill="#1A1A1A" opacity="0.3"/>
<circle cx="560" cy="40" r="10" fill="white" opacity="0.7"/>
<!-- East River -->
<rect x="0" y="192" width="600" height="18" fill="#0a1a2a" opacity="0.7"/>
<!-- Brooklyn Bridge -->
<rect x="100" y="135" width="10" height="65" fill="#8899aa"/>
<rect x="100" y="122" width="10" height="18" fill="#aabbcc"/>
<!-- Gothic arches on tower -->
<path d="M100 125 Q105 118 110 125" fill="none" stroke="#8899aa" stroke-width="1.5"/>
<rect x="350" y="130" width="10" height="70" fill="#8899aa"/>
<rect x="350" y="117" width="10" height="18" fill="#aabbcc"/>
<path d="M350 120 Q355 113 360 120" fill="none" stroke="#8899aa" stroke-width="1.5"/>
<!-- Main cables -->
<path d="M105 122 Q230 155 355 117" fill="none" stroke="#aabbcc" stroke-width="2"/>
<path d="M105 140 Q230 170 355 135" fill="none" stroke="#aabbcc" stroke-width="1.5"/>
<!-- Vertical suspenders -->
<line x1="130" y1="151" x2="130" y2="168" stroke="#8899aa" stroke-width="1"/>
<line x1="155" y1="148" x2="155" y2="168" stroke="#8899aa" stroke-width="1"/>
<line x1="180" y1="146" x2="180" y2="168" stroke="#8899aa" stroke-width="1"/>
<line x1="205" y1="145" x2="205" y2="168" stroke="#8899aa" stroke-width="1"/>
<line x1="230" y1="145" x2="230" y2="168" stroke="#8899aa" stroke-width="1"/>
<line x1="255" y1="145" x2="255" y2="168" stroke="#8899aa" stroke-width="1"/>
<line x1="280" y1="146" x2="280" y2="168" stroke="#8899aa" stroke-width="1"/>
<line x1="305" y1="148" x2="305" y2="168" stroke="#8899aa" stroke-width="1"/>
<line x1="330" y1="150" x2="330" y2="168" stroke="#8899aa" stroke-width="1"/>
<!-- Road deck -->
<rect x="95" y="165" width="270" height="5" fill="#445566"/>
<!-- Brooklyn buildings (right) -->
<rect x="390" y="110" width="22" height="100" fill="#111827"/>
<rect x="418" y="95" width="26" height="115" fill="#0f172a"/>
<rect x="450" y="105" width="20" height="105" fill="#111827"/>
<rect x="476" y="88" width="28" height="122" fill="#0f172a"/>
<rect x="510" y="100" width="22" height="110" fill="#111827"/>
<rect x="538" y="112" width="20" height="98" fill="#0f172a"/>
<rect x="564" y="95" width="24" height="115" fill="#111827"/>
<!-- Windows -->
<rect x="422" y="105" width="4" height="5" fill="#1A1A1A" opacity="0.7"/>
<rect x="480" y="98" width="4" height="5" fill="#1A1A1A" opacity="0.6"/>
<rect x="488" y="98" width="4" height="5" fill="#1A1A1A" opacity="0.5"/>
<rect x="514" y="110" width="4" height="5" fill="#1A1A1A" opacity="0.6"/>
<rect x="0" y="210" width="600" height="90" fill="#050508"/>
<line x1="0" y1="210" x2="600" y2="210" stroke="#8899aa" stroke-width="1" opacity="0.5"/>
<rect x="0" y="118" width="600" height="62" fill="black" opacity="0.65"/>
<line x1="40" y1="121" x2="560" y2="121" stroke="#8899aa" stroke-width="1" opacity="0.8"/>
<text x="300" y="160" font-family="monospace" font-size="26" font-weight="700" fill="white" text-anchor="middle" letter-spacing="6">BROOKLYN</text>
<line x1="40" y1="177" x2="560" y2="177" stroke="#8899aa" stroke-width="1" opacity="0.8"/>
</svg>