<svg xmlns="http://www.w3.org/2000/svg" viewBox="0 0 600 300" width="600" height="300">
<rect width="600" height="300" fill="#080818"/>
<circle cx="80" cy="25" r="1.2" fill="white" opacity="0.5"/>
<circle cx="160" cy="40" r="1" fill="white" opacity="0.4"/>
<circle cx="300" cy="18" r="1.5" fill="white" opacity="0.6"/>
<circle cx="440" cy="32" r="1" fill="white" opacity="0.5"/>
<circle cx="530" cy="20" r="1.2" fill="white" opacity="0.4"/>
<circle cx="560" cy="44" r="1" fill="white" opacity="0.3"/>
<circle cx="560" cy="40" r="18" fill="#E8442A" opacity="0.08"/>
<circle cx="560" cy="40" r="10" fill="white" opacity="0.7"/>
<!-- Water tower left -->
<rect x="18" y="168" width="16" height="20" fill="#334155"/>
<rect x="15" y="158" width="22" height="12" fill="#475569" rx="2"/>
<rect x="20" y="152" width="12" height="8" fill="#334155"/>
<!-- Willis Tower (Sears) center-left -->
<rect x="55" y="70" width="32" height="140" fill="#0f172a"/>
<rect x="60" y="55" width="22" height="25" fill="#111827"/>
<rect x="64" y="40" width="14" height="20" fill="#0f172a"/>
<rect x="69" y="28" width="4" height="15" fill="#8899aa"/>
<rect x="73" y="28" width="4" height="12" fill="#8899aa"/>
<!-- Buildings -->
<rect x="95" y="100" width="24" height="110" fill="#111827"/>
<rect x="125" y="85" width="28" height="125" fill="#0f172a"/>
<rect x="159" y="110" width="20" height="100" fill="#111827"/>
<rect x="185" y="90" width="26" height="120" fill="#0f172a"/>
<rect x="217" y="105" width="22" height="105" fill="#111827"/>
<rect x="245" y="80" width="30" height="130" fill="#0f172a"/>
<rect x="281" y="100" width="22" height="110" fill="#111827"/>
<rect x="309" y="88" width="26" height="122" fill="#0f172a"/>
<rect x="341" y="108" width="20" height="102" fill="#111827"/>
<rect x="367" y="85" width="28" height="125" fill="#0f172a"/>
<rect x="401" y="100" width="22" height="110" fill="#111827"/>
<rect x="429" y="90" width="26" height="120" fill="#0f172a"/>
<rect x="461" y="110" width="20" height="100" fill="#111827"/>
<rect x="487" y="95" width="24" height="115" fill="#0f172a"/>
<rect x="517" y="105" width="22" height="105" fill="#111827"/>
<rect x="545" y="115" width="20" height="95" fill="#0f172a"/>
<rect x="571" y="100" width="22" height="110" fill="#111827"/>
<!-- Windows Willis -->
<rect x="58" y="78" width="4" height="5" fill="#E8442A" opacity="0.5"/>
<rect x="64" y="78" width="4" height="5" fill="#E8442A" opacity="0.4"/>
<rect x="70" y="78" width="4" height="5" fill="#E8442A" opacity="0.6"/>
<rect x="58" y="90" width="4" height="5" fill="#E8442A" opacity="0.3"/>
<rect x="64" y="90" width="4" height="5" fill="#E8442A" opacity="0.5"/>
<rect x="130" y="95" width="4" height="5" fill="#E8442A" opacity="0.4"/>
<rect x="138" y="95" width="4" height="5" fill="#E8442A" opacity="0.3"/>
<rect x="190" y="100" width="4" height="5" fill="#E8442A" opacity="0.5"/>
<rect x="198" y="100" width="4" height="5" fill="#E8442A" opacity="0.4"/>
<rect x="250" y="90" width="4" height="5" fill="#E8442A" opacity="0.4"/>
<rect x="258" y="90" width="4" height="5" fill="#E8442A" opacity="0.5"/>
<rect x="266" y="90" width="4" height="5" fill="#E8442A" opacity="0.3"/>
<!-- Lake Michigan hint -->
<rect x="0" y="205" width="600" height="5" fill="#1a3a5a" opacity="0.6"/>
<rect x="0" y="208" width="600" height="92" fill="#050508"/>
<line x1="0" y1="205" x2="600" y2="205" stroke="#E8442A" stroke-width="1" opacity="0.4"/>
<rect x="0" y="118" width="600" height="62" fill="black" opacity="0.65"/>
<line x1="40" y1="121" x2="560" y2="121" stroke="#E8442A" stroke-width="1" opacity="0.8"/>
<text x="300" y="160" font-family="monospace" font-size="26" font-weight="700" fill="white" text-anchor="middle" letter-spacing="6">CHICAGO</text>
<line x1="40" y1="177" x2="560" y2="177" stroke="#E8442A" stroke-width="1" opacity="0.8"/>
</svg>