<svg xmlns="http://www.w3.org/2000/svg" viewBox="0 0 600 300" width="600" height="300">
<rect width="600" height="300" fill="#100818"/>
<circle cx="60" cy="28" r="1" fill="white" opacity="0.5"/>
<circle cx="180" cy="18" r="1.2" fill="white" opacity="0.4"/>
<circle cx="320" cy="35" r="1" fill="white" opacity="0.6"/>
<circle cx="480" cy="22" r="1.5" fill="white" opacity="0.3"/>
<circle cx="560" cy="42" r="1" fill="white" opacity="0.5"/>
<circle cx="560" cy="40" r="18" fill="#E8442A" opacity="0.1"/>
<circle cx="560" cy="40" r="10" fill="#ffeecc" opacity="0.8"/>
<!-- Hollywood Hills silhouette -->
<path d="M 0 155 Q 40 130 80 140 Q 110 125 140 135 Q 160 118 185 128 Q 210 112 235 122 Q 255 108 275 118 Q 290 128 310 120 Q 330 128 355 138 Q 380 130 400 138 L 400 210 L 0 210 Z" fill="#1a0f2e"/>
<!-- Hollywood sign on hill -->
<text x="145" y="125" font-family="monospace" font-size="9" font-weight="700" fill="white" opacity="0.7" letter-spacing="2">HOLLYWOOD</text>
<!-- Palm trees -->
<line x1="30" y1="210" x2="30" y2="160" stroke="#2d4a1e" stroke-width="3"/>
<path d="M30 160 Q20 148 10 152 Q22 156 18 145 Q28 155 26 142 Q32 153 30 140 Q36 152 34 145 Q40 152 32 160" fill="#3a6028"/>
<line x1="55" y1="210" x2="55" y2="168" stroke="#2d4a1e" stroke-width="2.5"/>
<path d="M55 168 Q46 157 37 160 Q48 163 44 153 Q53 162 51 150 Q57 161 55 148 Q61 160 59 153 Q64 159 56 168" fill="#3a6028"/>
<line x1="575" y1="210" x2="575" y2="162" stroke="#2d4a1e" stroke-width="3"/>
<path d="M575 162 Q565 150 555 154 Q567 158 563 147 Q572 157 570 144 Q576 155 574 142 Q580 154 578 147 Q584 153 576 162" fill="#3a6028"/>
<!-- Downtown LA buildings -->
<rect x="390" y="115" width="22" height="95" fill="#111827"/>
<rect x="418" y="100" width="26" height="110" fill="#0f172a"/>
<rect x="450" y="90" width="20" height="120" fill="#111827"/>
<rect x="476" y="105" width="24" height="105" fill="#0f172a"/>
<rect x="506" y="95" width="22" height="115" fill="#111827"/>
<rect x="534" y="110" width="20" height="100" fill="#0f172a"/>
<rect x="560" y="100" width="22" height="110" fill="#111827"/>
<!-- Windows -->
<rect x="422" y="110" width="4" height="5" fill="#E8442A" opacity="0.5"/>
<rect x="430" y="110" width="4" height="5" fill="#E8442A" opacity="0.4"/>
<rect x="454" y="100" width="4" height="5" fill="#E8442A" opacity="0.5"/>
<rect x="454" y="112" width="4" height="5" fill="#E8442A" opacity="0.3"/>
<rect x="480" y="115" width="4" height="5" fill="#E8442A" opacity="0.4"/>
<rect x="510" y="105" width="4" height="5" fill="#E8442A" opacity="0.5"/>
<rect x="510" y="117" width="4" height="5" fill="#E8442A" opacity="0.3"/>
<rect x="538" y="120" width="4" height="5" fill="#E8442A" opacity="0.4"/>
<rect x="0" y="210" width="600" height="90" fill="#050508"/>
<line x1="0" y1="210" x2="600" y2="210" stroke="#E8442A" stroke-width="1" opacity="0.4"/>
<rect x="0" y="118" width="600" height="62" fill="black" opacity="0.65"/>
<line x1="40" y1="121" x2="560" y2="121" stroke="#E8442A" stroke-width="1" opacity="0.8"/>
<text x="300" y="160" font-family="monospace" font-size="26" font-weight="700" fill="white" text-anchor="middle" letter-spacing="6">LOS ANGELES</text>
<line x1="40" y1="177" x2="560" y2="177" stroke="#E8442A" stroke-width="1" opacity="0.8"/>
</svg>