<svg xmlns="http://www.w3.org/2000/svg" viewBox="0 0 600 300" width="600" height="300">
<rect width="600" height="300" fill="#080818"/>
<circle cx="60" cy="25" r="1" fill="white" opacity="0.4"/>
<circle cx="160" cy="38" r="1.2" fill="white" opacity="0.5"/>
<circle cx="360" cy="20" r="1" fill="white" opacity="0.4"/>
<circle cx="500" cy="32" r="1.5" fill="white" opacity="0.3"/>
<circle cx="560" cy="40" r="18" fill="#E8442A" opacity="0.1"/>
<circle cx="560" cy="40" r="10" fill="#ffeecc" opacity="0.8"/>
<!-- Ocean -->
<rect x="0" y="195" width="600" height="15" fill="#0a1a3a" opacity="0.6"/>
<!-- Art Deco hotels (South Beach style) -->
<rect x="25" y="145" width="30" height="65" fill="#1e2a4a"/>
<rect x="28" y="138" width="24" height="10" fill="#2a3a5a"/>
<rect x="32" y="130" width="16" height="10" fill="#1e2a4a"/>
<!-- Deco details -->
<rect x="30" y="150" width="4" height="8" fill="#E8442A" opacity="0.4"/>
<rect x="46" y="150" width="4" height="8" fill="#E8442A" opacity="0.4"/>
<rect x="60" y="148" width="28" height="62" fill="#1a2540"/>
<rect x="63" y="140" width="22" height="10" fill="#243050"/>
<rect x="67" y="132" width="14" height="10" fill="#1a2540"/>
<rect x="65" y="153" width="4" height="8" fill="#2D5BE3" opacity="0.4"/>
<rect x="78" y="153" width="4" height="8" fill="#2D5BE3" opacity="0.4"/>
<!-- Palm trees -->
<line x1="108" y1="210" x2="108" y2="162" stroke="#2d4a1e" stroke-width="3"/>
<path d="M108 162 Q98 150 88 154 Q100 158 96 148 Q105 157 103 145 Q109 156 107 143 Q113 155 111 148 Q116 154 108 162" fill="#3a6028"/>
<line x1="128" y1="210" x2="128" y2="170" stroke="#2d4a1e" stroke-width="2.5"/>
<path d="M128 170 Q119 159 110 162 Q121 166 117 156 Q126 165 124 153 Q130 164 128 151 Q134 163 132 156 Q137 162 129 170" fill="#3a6028"/>
<!-- Modern Miami towers -->
<rect x="145" y="95" width="24" height="115" fill="#111827"/>
<rect x="175" y="80" width="28" height="130" fill="#0f172a"/>
<rect x="209" y="100" width="22" height="110" fill="#111827"/>
<rect x="237" y="85" width="30" height="125" fill="#0f172a"/>
<rect x="273" y="100" width="22" height="110" fill="#111827"/>
<rect x="301" y="88" width="26" height="122" fill="#0f172a"/>
<rect x="333" y="102" width="20" height="108" fill="#111827"/>
<rect x="359" y="85" width="28" height="125" fill="#0f172a"/>
<rect x="393" y="98" width="24" height="112" fill="#111827"/>
<rect x="423" y="88" width="26" height="122" fill="#0f172a"/>
<rect x="455" y="100" width="22" height="110" fill="#111827"/>
<rect x="483" y="90" width="24" height="120" fill="#0f172a"/>
<rect x="513" y="102" width="22" height="108" fill="#111827"/>
<rect x="541" y="88" width="26" height="122" fill="#0f172a"/>
<!-- Windows with teal/pink Miami vibes -->
<rect x="149" y="105" width="4" height="5" fill="#E8442A" opacity="0.5"/>
<rect x="179" y="90" width="4" height="5" fill="#2D5BE3" opacity="0.4"/>
<rect x="187" y="90" width="4" height="5" fill="#2D5BE3" opacity="0.5"/>
<rect x="241" y="95" width="4" height="5" fill="#E8442A" opacity="0.4"/>
<rect x="249" y="95" width="4" height="5" fill="#E8442A" opacity="0.3"/>
<rect x="305" y="98" width="4" height="5" fill="#2D5BE3" opacity="0.5"/>
<rect x="363" y="95" width="4" height="5" fill="#E8442A" opacity="0.4"/>
<rect x="427" y="98" width="4" height="5" fill="#2D5BE3" opacity="0.5"/>
<rect x="435" y="98" width="4" height="5" fill="#2D5BE3" opacity="0.3"/>
<rect x="487" y="100" width="4" height="5" fill="#E8442A" opacity="0.4"/>
<rect x="0" y="210" width="600" height="90" fill="#050508"/>
<line x1="0" y1="210" x2="600" y2="210" stroke="#E8442A" stroke-width="1" opacity="0.4"/>
<rect x="0" y="118" width="600" height="62" fill="black" opacity="0.65"/>
<line x1="40" y1="121" x2="560" y2="121" stroke="#E8442A" stroke-width="1" opacity="0.8"/>
<text x="300" y="160" font-family="monospace" font-size="26" font-weight="700" fill="white" text-anchor="middle" letter-spacing="6">MIAMI</text>
<line x1="40" y1="177" x2="560" y2="177" stroke="#E8442A" stroke-width="1" opacity="0.8"/>
</svg>