<svg xmlns="http://www.w3.org/2000/svg" viewBox="0 0 600 300" width="600" height="300">
<rect width="600" height="300" fill="#080818"/>
<circle cx="80" cy="25" r="1" fill="white" opacity="0.5"/>
<circle cx="300" cy="18" r="1.2" fill="white" opacity="0.4"/>
<circle cx="500" cy="30" r="1" fill="white" opacity="0.6"/>
<circle cx="560" cy="40" r="18" fill="#E8442A" opacity="0.08"/>
<circle cx="560" cy="40" r="10" fill="white" opacity="0.7"/>
<!-- Guitar silhouette (left) -->
<ellipse cx="45" cy="185" rx="18" ry="22" fill="#2a1a0a" stroke="#5a3a1a" stroke-width="1.5"/>
<ellipse cx="45" cy="150" rx="12" ry="16" fill="#2a1a0a" stroke="#5a3a1a" stroke-width="1.5"/>
<line x1="45" y1="134" x2="45" y2="80" stroke="#5a3a1a" stroke-width="4"/>
<rect x="38" y="78" width="14" height="8" fill="#3a2a0a"/>
<!-- Guitar strings -->
<line x1="40" y1="80" x2="40" y2="134" stroke="#8899aa" stroke-width="0.5" opacity="0.5"/>
<line x1="43" y1="80" x2="43" y2="134" stroke="#8899aa" stroke-width="0.5" opacity="0.5"/>
<line x1="47" y1="80" x2="47" y2="134" stroke="#8899aa" stroke-width="0.5" opacity="0.5"/>
<line x1="50" y1="80" x2="50" y2="134" stroke="#8899aa" stroke-width="0.5" opacity="0.5"/>
<!-- AT&T Batman Building -->
<rect x="248" y="80" width="40" height="130" fill="#0f172a"/>
<!-- Batman ears/twin towers -->
<rect x="248" y="55" width="12" height="28" fill="#0f172a"/>
<rect x="276" y="55" width="12" height="28" fill="#0f172a"/>
<rect x="251" y="40" width="6" height="18" fill="#111827"/>
<rect x="279" y="40" width="6" height="18" fill="#111827"/>
<!-- Building base detail -->
<rect x="244" y="180" width="48" height="10" fill="#1a2438"/>
<!-- Nashville buildings -->
<rect x="90" y="110" width="22" height="100" fill="#111827"/>
<rect x="118" y="95" width="26" height="115" fill="#0f172a"/>
<rect x="150" y="108" width="20" height="102" fill="#111827"/>
<rect x="176" y="95" width="28" height="115" fill="#0f172a"/>
<rect x="210" y="105" width="22" height="105" fill="#111827"/>
<rect x="238" y="95" width="14" height="115" fill="#111827"/>
<rect x="298" y="95" width="14" height="115" fill="#111827"/>
<rect x="318" y="105" width="22" height="105" fill="#111827"/>
<rect x="346" y="95" width="28" height="115" fill="#0f172a"/>
<rect x="380" y="108" width="22" height="102" fill="#111827"/>
<rect x="408" y="95" width="26" height="115" fill="#0f172a"/>
<rect x="440" y="105" width="22" height="105" fill="#111827"/>
<rect x="468" y="95" width="26" height="115" fill="#0f172a"/>
<rect x="500" y="108" width="22" height="102" fill="#111827"/>
<rect x="528" y="95" width="26" height="115" fill="#0f172a"/>
<rect x="560" y="108" width="22" height="102" fill="#111827"/>
<!-- Windows -->
<rect x="252" y="90" width="4" height="5" fill="#E8442A" opacity="0.5"/>
<rect x="260" y="90" width="4" height="5" fill="#E8442A" opacity="0.4"/>
<rect x="268" y="90" width="4" height="5" fill="#E8442A" opacity="0.5"/>
<rect x="252" y="102" width="4" height="5" fill="#E8442A" opacity="0.3"/>
<rect x="122" y="105" width="4" height="5" fill="#E8442A" opacity="0.4"/>
<rect x="350" y="105" width="4" height="5" fill="#E8442A" opacity="0.4"/>
<rect x="0" y="210" width="600" height="90" fill="#050508"/>
<line x1="0" y1="210" x2="600" y2="210" stroke="#E8442A" stroke-width="1" opacity="0.4"/>
<rect x="0" y="118" width="600" height="62" fill="black" opacity="0.65"/>
<line x1="40" y1="121" x2="560" y2="121" stroke="#E8442A" stroke-width="1" opacity="0.8"/>
<text x="300" y="160" font-family="monospace" font-size="26" font-weight="700" fill="white" text-anchor="middle" letter-spacing="6">NASHVILLE</text>
<line x1="40" y1="177" x2="560" y2="177" stroke="#E8442A" stroke-width="1" opacity="0.8"/>
</svg>