<svg xmlns="http://www.w3.org/2000/svg" viewBox="0 0 600 300" width="600" height="300">
<rect width="600" height="300" fill="#080818"/>
<circle cx="80" cy="22" r="1" fill="white" opacity="0.5"/>
<circle cx="300" cy="18" r="1.2" fill="white" opacity="0.4"/>
<circle cx="500" cy="30" r="1" fill="white" opacity="0.6"/>
<circle cx="560" cy="40" r="18" fill="#E8442A" opacity="0.08"/>
<circle cx="560" cy="40" r="10" fill="#ffeecc" opacity="0.7"/>
<!-- St. Louis Cathedral (3 steeples) -->
<rect x="228" y="130" width="80" height="80" fill="#1e2a4a"/>
<!-- Left tower -->
<rect x="218" y="118" width="22" height="80" fill="#1a2438"/>
<rect x="220" y="108" width="18" height="12" fill="#243050"/>
<rect x="223" y="98" width="12" height="12" fill="#1a2438"/>
<rect x="225" y="88" width="8" height="12" fill="#243050"/>
<line x1="229" y1="88" x2="229" y2="75" stroke="#8899aa" stroke-width="2"/>
<circle cx="229" cy="73" r="2" fill="#ffcc44" opacity="0.8"/>
<!-- Center tower (tallest) -->
<rect x="268" y="105" width="24" height="105" fill="#1e2a4a"/>
<rect x="271" y="95" width="18" height="12" fill="#243050"/>
<rect x="274" y="82" width="12" height="15" fill="#1e2a4a"/>
<rect x="276" y="70" width="8" height="14" fill="#243050"/>
<line x1="280" y1="70" x2="280" y2="52" stroke="#8899aa" stroke-width="2"/>
<circle cx="280" cy="50" r="2.5" fill="#ffcc44" opacity="0.9"/>
<!-- Right tower -->
<rect x="300" y="118" width="22" height="80" fill="#1a2438"/>
<rect x="302" y="108" width="18" height="12" fill="#243050"/>
<rect x="305" y="98" width="12" height="12" fill="#1a2438"/>
<rect x="307" y="88" width="8" height="12" fill="#243050"/>
<line x1="311" y1="88" x2="311" y2="75" stroke="#8899aa" stroke-width="2"/>
<circle cx="311" cy="73" r="2" fill="#ffcc44" opacity="0.8"/>
<!-- French Quarter ironwork balcony hints -->
<rect x="30" y="155" width="60" height="45" fill="#1a1a2a"/>
<rect x="28" y="148" width="64" height="10" fill="#243050"/>
<!-- Ironwork pattern -->
<line x1="35" y1="148" x2="35" y2="200" stroke="#4a6a4a" stroke-width="1.5"/>
<line x1="45" y1="148" x2="45" y2="200" stroke="#4a6a4a" stroke-width="1.5"/>
<line x1="55" y1="148" x2="55" y2="200" stroke="#4a6a4a" stroke-width="1.5"/>
<line x1="65" y1="148" x2="65" y2="200" stroke="#4a6a4a" stroke-width="1.5"/>
<line x1="75" y1="148" x2="75" y2="200" stroke="#4a6a4a" stroke-width="1.5"/>
<line x1="85" y1="148" x2="85" y2="200" stroke="#4a6a4a" stroke-width="1.5"/>
<line x1="30" y1="165" x2="90" y2="165" stroke="#4a6a4a" stroke-width="1"/>
<line x1="30" y1="180" x2="90" y2="180" stroke="#4a6a4a" stroke-width="1"/>
<!-- Streetcar hint -->
<rect x="400" y="192" width="55" height="18" fill="#1a3a1a" rx="2"/>
<rect x="403" y="185" width="49" height="10" fill="#243050" rx="1"/>
<circle cx="410" cy="210" r="4" fill="#334455"/>
<circle cx="448" cy="210" r="4" fill="#334455"/>
<!-- New Orleans buildings -->
<rect x="100" y="130" width="22" height="80" fill="#111827"/>
<rect x="128" y="118" width="24" height="92" fill="#0f172a"/>
<rect x="158" y="128" width="20" height="82" fill="#111827"/>
<rect x="184" y="118" width="24" height="92" fill="#0f172a"/>
<rect x="358" y="128" width="22" height="82" fill="#111827"/>
<rect x="386" y="118" width="24" height="92" fill="#0f172a"/>
<rect x="470" y="125" width="22" height="85" fill="#111827"/>
<rect x="498" y="115" width="26" height="95" fill="#0f172a"/>
<rect x="530" y="125" width="22" height="85" fill="#111827"/>
<rect x="558" y="118" width="22" height="92" fill="#0f172a"/>
<!-- Windows -->
<rect x="132" y="128" width="4" height="5" fill="#E8442A" opacity="0.5"/>
<rect x="188" y="128" width="4" height="5" fill="#E8442A" opacity="0.4"/>
<rect x="390" y="128" width="4" height="5" fill="#E8442A" opacity="0.5"/>
<rect x="502" y="125" width="4" height="5" fill="#E8442A" opacity="0.4"/>
<rect x="0" y="210" width="600" height="90" fill="#050508"/>
<line x1="0" y1="210" x2="600" y2="210" stroke="#E8442A" stroke-width="1" opacity="0.4"/>
<rect x="0" y="118" width="600" height="62" fill="black" opacity="0.65"/>
<line x1="40" y1="121" x2="560" y2="121" stroke="#E8442A" stroke-width="1" opacity="0.8"/>
<text x="300" y="160" font-family="monospace" font-size="23" font-weight="700" fill="white" text-anchor="middle" letter-spacing="5">NEW ORLEANS</text>
<line x1="40" y1="177" x2="560" y2="177" stroke="#E8442A" stroke-width="1" opacity="0.8"/>
</svg>