<svg xmlns="http://www.w3.org/2000/svg" viewBox="0 0 600 300" width="600" height="300">
<rect width="600" height="300" fill="#080818"/>
<circle cx="80" cy="22" r="1" fill="white" opacity="0.5"/>
<circle cx="200" cy="35" r="1.2" fill="white" opacity="0.4"/>
<circle cx="420" cy="18" r="1" fill="white" opacity="0.6"/>
<circle cx="540" cy="30" r="1.5" fill="white" opacity="0.3"/>
<circle cx="560" cy="40" r="18" fill="#2D5BE3" opacity="0.08"/>
<circle cx="560" cy="40" r="10" fill="white" opacity="0.7"/>
<!-- Mount Rainier in background -->
<path d="M 350 130 L 420 55 L 490 130" fill="#1a1a2e" opacity="0.7"/>
<path d="M 400 80 L 420 55 L 440 80" fill="white" opacity="0.15"/>
<!-- Space Needle -->
<line x1="215" y1="60" x2="215" y2="175" stroke="#8899aa" stroke-width="3"/>
<ellipse cx="215" cy="95" rx="22" ry="10" fill="#111827"/>
<ellipse cx="215" cy="90" rx="18" ry="8" fill="#1a2438"/>
<!-- Needle top antenna -->
<line x1="215" y1="60" x2="215" y2="45" stroke="#8899aa" stroke-width="2"/>
<circle cx="215" cy="43" r="3" fill="#E8442A" opacity="0.8"/>
<!-- Needle base legs -->
<path d="M215 175 L195 210 M215 175 L235 210 M215 175 L205 210 M215 175 L225 210" fill="none" stroke="#8899aa" stroke-width="2"/>
<!-- Observation deck glow -->
<rect x="197" y="84" width="36" height="14" fill="#1a2438"/>
<rect x="200" y="86" width="4" height="5" fill="#2D5BE3" opacity="0.6"/>
<rect x="208" y="86" width="4" height="5" fill="#2D5BE3" opacity="0.5"/>
<rect x="216" y="86" width="4" height="5" fill="#2D5BE3" opacity="0.6"/>
<rect x="224" y="86" width="4" height="5" fill="#2D5BE3" opacity="0.4"/>
<!-- Seattle buildings -->
<rect x="40" y="110" width="22" height="100" fill="#111827"/>
<rect x="68" y="95" width="26" height="115" fill="#0f172a"/>
<rect x="100" y="108" width="20" height="102" fill="#111827"/>
<rect x="126" y="92" width="28" height="118" fill="#0f172a"/>
<rect x="160" y="105" width="22" height="105" fill="#111827"/>
<rect x="258" y="108" width="22" height="102" fill="#111827"/>
<rect x="286" y="92" width="26" height="118" fill="#0f172a"/>
<rect x="318" y="105" width="22" height="105" fill="#111827"/>
<rect x="346" y="118" width="20" height="92" fill="#0f172a"/>
<rect x="500" y="105" width="22" height="105" fill="#111827"/>
<rect x="528" y="92" width="26" height="118" fill="#0f172a"/>
<rect x="560" y="108" width="22" height="102" fill="#111827"/>
<!-- Windows -->
<rect x="72" y="105" width="4" height="5" fill="#2D5BE3" opacity="0.5"/>
<rect x="130" y="102" width="4" height="5" fill="#2D5BE3" opacity="0.4"/>
<rect x="290" y="102" width="4" height="5" fill="#2D5BE3" opacity="0.5"/>
<rect x="532" y="102" width="4" height="5" fill="#2D5BE3" opacity="0.4"/>
<rect x="0" y="210" width="600" height="90" fill="#050508"/>
<line x1="0" y1="210" x2="600" y2="210" stroke="#2D5BE3" stroke-width="1" opacity="0.4"/>
<rect x="0" y="118" width="600" height="62" fill="black" opacity="0.65"/>
<line x1="40" y1="121" x2="560" y2="121" stroke="#2D5BE3" stroke-width="1" opacity="0.8"/>
<text x="300" y="160" font-family="monospace" font-size="26" font-weight="700" fill="white" text-anchor="middle" letter-spacing="6">SEATTLE</text>
<line x1="40" y1="177" x2="560" y2="177" stroke="#2D5BE3" stroke-width="1" opacity="0.8"/>
</svg>