<svg xmlns="http://www.w3.org/2000/svg" width="600" height="600" viewBox="0 0 600 600">
<rect x="0" y="0" width="600" height="600" fill="#FFFFFF"/>
<style><![CDATA[
.room{fill:#F5F5F5;stroke:#1A1A1A;stroke-width:8;}
.wall{stroke:#1A1A1A;stroke-width:8;stroke-linecap:square;fill:none;}
.thin{stroke:#1A1A1A;stroke-width:2;fill:none;}
.dash{stroke:#1A1A1A;stroke-width:2;fill:none;stroke-dasharray:7 6;}
.door{stroke:#1A1A1A;stroke-width:2;fill:none;}
.label{font-family:monospace;font-size:11px;fill:#1A1A1A;text-anchor:middle;dominant-baseline:middle;letter-spacing:.8px;}
.small{font-family:monospace;font-size:10px;fill:#1A1A1A;}
.tiny{font-family:monospace;font-size:8px;fill:#1A1A1A;text-anchor:middle;dominant-baseline:middle;}
.flaw{fill:none;stroke:#D00000;stroke-width:1.5;stroke-dasharray:6 5;}
]]></style>
<rect x="90" y="90" width="210" height="190" class="room"/>
<text x="195.0" y="185.0" class="label">LIVING ROOM</text>
<rect x="300" y="90" width="155" height="190" class="room"/>
<text x="377.5" y="185.0" class="label">BEDROOM</text>
<rect x="90" y="280" width="210" height="120" class="room"/>
<text x="195.0" y="340.0" class="label">KITCHEN</text>
<rect x="300" y="280" width="155" height="120" class="room"/>
<text x="377.5" y="340.0" class="label">BATHROOM</text>
<text x="102" y="392" class="small">FRONT DOOR</text>
<line x1="122" y1="400" x2="156" y2="400" class="thin"/>
<path d="M156 400 A34 34 0 0 1 122 366" class="door"/>
<line x1="300" y1="344" x2="328" y2="344" class="thin"/>
<path d="M328 344 A28 28 0 0 1 300 316" class="door"/>
<line x1="300" y1="185" x2="300" y2="213" class="thin"/>
<path d="M300 213 A28 28 0 0 1 328 185" class="door"/>
<rect x="115" y="320" width="34" height="26" fill="#FFFFFF" stroke="#1A1A1A" stroke-width="2"/>
<text x="132" y="335" class="tiny" text-anchor="middle">SINK</text>
<rect x="155" y="320" width="34" height="26" fill="#FFFFFF" stroke="#1A1A1A" stroke-width="2"/>
<text x="172" y="335" class="tiny" text-anchor="middle">STV</text>
<rect x="195" y="320" width="34" height="26" fill="#FFFFFF" stroke="#1A1A1A" stroke-width="2"/>
<text x="212" y="335" class="tiny" text-anchor="middle">FRG</text>
<rect x="145" y="182" width="70" height="26" fill="#FFFFFF" stroke="#1A1A1A" stroke-width="2"/>
<text x="180" y="199" class="tiny" text-anchor="middle">SOFA</text>
<line x1="327" y1="90" x2="424" y2="90" stroke="#FFFFFF" stroke-width="12" stroke-linecap="square"/>
<line x1="327" y1="90" x2="424" y2="90" stroke="#1A1A1A" stroke-width="2" stroke-linecap="square"/>
<rect x="318" y="95" width="115" height="72" fill="#FFFFFF" stroke="#1A1A1A" stroke-width="2"/>
<text x="375" y="126" class="tiny" text-anchor="middle">MURPHY</text>
<text x="375" y="139" class="tiny" text-anchor="middle">BED DOWN</text>
<line x1="318" y1="95" x2="433" y2="167" class="dash"/>
<rect x="346" y="176" width="68" height="42" fill="#FFFFFF" stroke="#1A1A1A" stroke-width="2"/>
<line x1="346" y1="189" x2="414" y2="189" class="thin"/>
<text x="380.0" y="201.0" class="tiny" text-anchor="middle">BED</text>
<text x="376" y="74" class="small" text-anchor="middle">ONLY WINDOW BLOCKED</text>
<rect x="314" y="86" width="124" height="90" class="flaw"/>
<g transform="translate(520,58)">
<circle cx="0" cy="0" r="22" class="thin"/>
<line x1="0" y1="-28" x2="0" y2="28" class="thin"/>
<line x1="-28" y1="0" x2="28" y2="0" class="thin"/>
<path d="M0 -32 L5 -20 L0 -24 L-5 -20 Z" fill="#1A1A1A"/>
<text x="0" y="-37" class="tiny">N</text>
<text x="34" y="3" class="tiny">E</text>
<text x="0" y="38" class="tiny">S</text>
<text x="-34" y="3" class="tiny">W</text>
</g>
<g transform="translate(405,548)">
<line x1="0" y1="0" x2="120" y2="0" class="thin"/>
<line x1="0" y1="-5" x2="0" y2="5" class="thin"/>
<line x1="120" y1="-5" x2="120" y2="5" class="thin"/>
<text x="60" y="18" class="tiny">NOT TO SCALE</text>
</g>
<text x="40" y="560" class="small">LOS ANGELES / STUDIO</text>
</svg>