<svg xmlns="http://www.w3.org/2000/svg" width="600" height="600" viewBox="0 0 600 600">
<rect x="0" y="0" width="600" height="600" fill="#FFFFFF"/>
<style><![CDATA[
.room{fill:#F5F5F5;stroke:#1A1A1A;stroke-width:8;}
.wall{stroke:#1A1A1A;stroke-width:8;stroke-linecap:square;fill:none;}
.thin{stroke:#1A1A1A;stroke-width:2;fill:none;}
.dash{stroke:#1A1A1A;stroke-width:2;fill:none;stroke-dasharray:7 6;}
.door{stroke:#1A1A1A;stroke-width:2;fill:none;}
.label{font-family:monospace;font-size:11px;fill:#1A1A1A;text-anchor:middle;dominant-baseline:middle;letter-spacing:.8px;}
.small{font-family:monospace;font-size:10px;fill:#1A1A1A;}
.tiny{font-family:monospace;font-size:8px;fill:#1A1A1A;text-anchor:middle;dominant-baseline:middle;}
.flaw{fill:none;stroke:#D00000;stroke-width:1.5;stroke-dasharray:6 5;}
]]></style>
<rect x="88" y="90" width="180" height="160" class="room"/>
<text x="178.0" y="170.0" class="label">LIVING ROOM</text>
<rect x="268" y="90" width="100" height="160" class="room"/>
<text x="318.0" y="170.0" class="label">KITCHEN</text>
<rect x="88" y="250" width="280" height="145" class="room"/>
<text x="228.0" y="322.5" class="label">BEDROOM</text>
<rect x="368" y="90" width="100" height="125" class="room"/>
<text x="418.0" y="152.5" class="label">BATHROOM</text>
<rect x="368" y="215" width="100" height="180" class="room"/>
<text x="418.0" y="305.0" class="label">ENTRY</text>
<text x="394" y="387" class="small">FRONT DOOR</text>
<line x1="414" y1="395" x2="448" y2="395" class="thin"/>
<path d="M448 395 A34 34 0 0 1 414 361" class="door"/>
<line x1="368" y1="152" x2="340" y2="152" class="thin"/>
<path d="M340 152 A28 28 0 0 1 368 180" class="door"/>
<line x1="368" y1="300" x2="340" y2="300" class="thin"/>
<path d="M340 300 A28 28 0 0 1 368 328" class="door"/>
<line x1="268" y1="166" x2="268" y2="194" class="thin"/>
<path d="M268 194 A28 28 0 0 1 296 166" class="door"/>
<rect x="288" y="118" width="34" height="26" fill="#FFFFFF" stroke="#1A1A1A" stroke-width="2"/>
<text x="305" y="133" class="tiny" text-anchor="middle">SINK</text>
<rect x="328" y="118" width="34" height="26" fill="#FFFFFF" stroke="#1A1A1A" stroke-width="2"/>
<text x="345" y="133" class="tiny" text-anchor="middle">STV</text>
<rect x="368" y="118" width="34" height="26" fill="#FFFFFF" stroke="#1A1A1A" stroke-width="2"/>
<text x="385" y="133" class="tiny" text-anchor="middle">FRG</text>
<rect x="188" y="308" width="80" height="50" fill="#FFFFFF" stroke="#1A1A1A" stroke-width="2"/>
<line x1="188" y1="321" x2="268" y2="321" class="thin"/>
<text x="228.0" y="337.0" class="tiny" text-anchor="middle">BED</text>
<rect x="140" y="178" width="70" height="26" fill="#FFFFFF" stroke="#1A1A1A" stroke-width="2"/>
<text x="175" y="195" class="tiny" text-anchor="middle">SOFA</text>
<line x1="130" y1="90" x2="210" y2="90" stroke="#FFFFFF" stroke-width="12" stroke-linecap="square"/>
<line x1="130" y1="90" x2="210" y2="90" stroke="#1A1A1A" stroke-width="2" stroke-linecap="square"/>
<line x1="175" y1="395" x2="255" y2="395" stroke="#FFFFFF" stroke-width="12" stroke-linecap="square"/>
<line x1="175" y1="395" x2="255" y2="395" stroke="#1A1A1A" stroke-width="2" stroke-linecap="square"/>
<line x1="414" y1="395" x2="228" y2="335" class="dash"/>
<text x="315" y="370" class="small" text-anchor="middle">DIRECT SIGHT LINE TO BED</text>
<rect x="180" y="296" width="260" height="110" class="flaw"/>
<g transform="translate(520,58)">
<circle cx="0" cy="0" r="22" class="thin"/>
<line x1="0" y1="-28" x2="0" y2="28" class="thin"/>
<line x1="-28" y1="0" x2="28" y2="0" class="thin"/>
<path d="M0 -32 L5 -20 L0 -24 L-5 -20 Z" fill="#1A1A1A"/>
<text x="0" y="-37" class="tiny">N</text>
<text x="34" y="3" class="tiny">E</text>
<text x="0" y="38" class="tiny">S</text>
<text x="-34" y="3" class="tiny">W</text>
</g>
<g transform="translate(405,548)">
<line x1="0" y1="0" x2="120" y2="0" class="thin"/>
<line x1="0" y1="-5" x2="0" y2="5" class="thin"/>
<line x1="120" y1="-5" x2="120" y2="5" class="thin"/>
<text x="60" y="18" class="tiny">NOT TO SCALE</text>
</g>
<text x="40" y="560" class="small">WASHINGTON DC / STUDIO</text>
</svg>